<svg id="svg" version="1.1" xmlns="http://www.w3.org/2000/svg" xmlns:xlink="http://www.w3.org/1999/xlink" width="400" height="400" viewBox="0, 0, 400,400"><g id="svgg"><path id="path0" d="M28.495 5.700 C 27.696 6.692,27.544 8.692,28.156 10.157 L 28.758 11.597 76.044 11.597 C 121.356 11.596,132.973 11.333,113.874 10.740 C 105.764 10.488,104.753 10.376,102.134 9.441 C 99.434 8.478,98.678 8.405,89.134 8.188 C 83.054 8.050,75.240 7.576,69.600 7.002 C 63.555 6.387,55.060 5.891,45.800 5.615 C 28.278 5.091,28.989 5.087,28.495 5.700 M368.800 10.412 C 367.150 10.568,361.480 10.744,356.200 10.803 C 350.920 10.862,343.630 11.033,340.000 11.182 C 335.442 11.370,340.052 11.477,354.900 11.527 C 376.158 11.599,376.400 11.591,376.400 10.800 C 376.400 9.909,374.932 9.834,368.800 10.412 M125.900 11.493 C 126.835 11.577,128.365 11.577,129.300 11.493 C 130.235 11.409,129.470 11.340,127.600 11.340 C 125.730 11.340,124.965 11.409,125.900 11.493 M23.753 15.910 C 18.129 16.005,17.223 16.112,16.652 16.742 C 16.025 17.435,15.687 224.012,16.102 353.184 L 16.200 383.767 17.600 384.064 C 19.287 384.422,380.204 384.505,382.435 384.148 L 383.996 383.898 383.898 200.692 L 383.800 17.486 382.800 16.752 C 381.894 16.088,57.978 15.328,23.753 15.910 M8.620 25.465 C 8.205 27.115,8.792 32.311,9.420 32.552 C 10.150 32.833,10.795 35.367,10.798 37.967 C 10.802 42.274,11.097 39.654,11.357 32.992 C 11.640 25.743,11.526 25.155,9.746 24.628 C 9.056 24.424,8.841 24.584,8.620 25.465 M388.683 28.250 C 388.527 28.406,388.400 52.383,388.400 81.533 C 388.400 110.683,388.520 134.414,388.666 134.267 C 388.812 134.121,389.073 129.096,389.245 123.101 C 389.585 111.284,390.114 104.394,390.822 102.563 C 391.104 101.834,391.478 93.863,391.824 81.200 C 392.362 61.567,392.780 54.647,393.614 51.547 C 393.837 50.720,394.060 45.129,394.110 39.122 L 394.200 28.200 391.583 28.084 C 390.144 28.020,388.839 28.095,388.683 28.250 M96.717 57.556 C 97.530 57.991,97.680 58.293,98.168 60.490 C 98.301 61.089,98.855 62.235,99.399 63.037 C 99.943 63.839,100.556 65.101,100.760 65.841 C 100.965 66.582,101.497 67.651,101.943 68.218 C 102.389 68.785,102.951 70.202,103.193 71.368 C 103.535 73.012,103.858 73.589,104.635 73.943 C 106.157 74.637,106.333 74.536,106.815 72.700 C 107.061 71.765,107.677 70.370,108.184 69.600 C 108.692 68.830,109.204 67.539,109.323 66.732 C 109.564 65.096,112.191 59.376,112.904 58.936 C 114.364 58.034,118.398 59.335,118.402 60.709 C 118.404 61.089,118.680 61.928,119.017 62.573 C 119.559 63.613,119.561 63.914,119.040 65.218 C 118.310 67.040,117.381 82.284,117.444 91.400 C 117.468 94.920,117.512 100.860,117.542 104.600 C 117.659 119.098,116.619 123.200,112.827 123.200 C 109.215 123.200,109.414 124.107,109.294 107.133 C 109.177 90.541,109.192 90.704,107.903 92.188 C 106.362 93.961,102.333 94.080,101.790 92.369 C 101.166 90.402,100.989 92.863,100.800 106.133 C 100.648 116.804,100.472 120.425,100.068 121.134 C 98.817 123.329,94.388 123.728,92.858 121.782 C 92.157 120.892,92.097 119.459,91.859 98.117 C 91.719 85.623,91.444 74.500,91.247 73.400 C 90.149 67.267,89.580 62.411,89.796 61.000 C 90.391 57.108,93.235 55.692,96.717 57.556 M191.486 59.448 C 193.601 60.016,195.095 64.317,195.984 72.400 C 196.214 74.490,196.677 76.983,197.013 77.941 C 197.845 80.310,198.382 89.403,198.392 101.285 C 198.399 110.480,198.461 111.332,199.278 113.485 C 201.327 118.891,199.708 123.200,195.628 123.200 C 192.349 123.200,191.933 122.337,191.554 114.770 C 191.041 104.495,191.020 104.345,189.984 103.507 C 189.229 102.895,188.973 102.856,188.544 103.285 C 187.974 103.855,186.401 113.702,186.398 116.722 C 186.392 121.732,184.026 124.126,180.791 122.395 C 178.677 121.264,178.549 99.813,180.622 93.939 C 180.959 92.984,181.408 89.862,181.621 87.001 C 182.258 78.446,182.744 74.312,183.362 72.200 C 183.684 71.100,184.072 68.535,184.225 66.501 C 184.514 62.661,185.688 59.864,187.180 59.460 C 188.161 59.195,190.517 59.189,191.486 59.448 M353.196 59.557 C 356.174 60.386,356.968 67.996,354.805 75.000 C 354.330 76.540,353.628 79.169,353.245 80.842 C 352.862 82.515,352.156 84.385,351.675 84.996 C 351.194 85.608,350.796 86.669,350.790 87.354 C 350.776 89.297,350.129 91.629,349.290 92.764 C 348.601 93.699,348.165 95.665,347.203 102.200 C 347.040 103.300,346.721 104.740,346.492 105.400 C 345.906 107.090,345.050 115.833,345.412 116.420 C 345.626 116.765,346.527 116.838,348.514 116.672 C 355.537 116.083,357.669 121.552,351.668 124.763 C 349.619 125.860,338.945 126.296,336.980 125.364 C 334.432 124.155,333.818 119.723,335.777 116.675 C 336.086 116.194,336.539 113.730,336.784 111.200 C 337.080 108.154,337.500 106.060,338.028 105.000 C 338.560 103.933,338.958 101.933,339.222 99.000 C 339.493 96.000,339.878 94.091,340.433 93.000 C 340.882 92.120,341.494 89.827,341.794 87.904 C 342.094 85.982,342.708 83.642,343.158 82.704 C 343.608 81.767,344.163 79.920,344.391 78.600 C 344.618 77.280,345.152 75.729,345.575 75.153 C 346.390 74.046,347.399 69.495,347.038 68.555 C 346.903 68.203,346.198 67.997,345.113 67.991 C 339.342 67.962,336.844 61.909,341.726 59.785 C 343.078 59.198,351.315 59.033,353.196 59.557 M212.873 61.544 C 214.960 62.440,217.568 64.820,218.302 66.500 C 218.566 67.105,218.939 67.600,219.131 67.600 C 219.322 67.600,219.790 68.365,220.171 69.300 C 220.553 70.235,221.255 71.803,221.732 72.785 C 222.965 75.321,222.973 80.776,221.746 82.800 C 221.279 83.570,220.779 84.867,220.634 85.683 C 220.482 86.534,219.967 87.483,219.423 87.911 C 217.815 89.176,217.878 91.276,219.538 91.753 C 221.950 92.446,225.317 96.719,225.816 99.721 C 225.969 100.644,226.355 101.908,226.672 102.529 C 227.262 103.681,227.141 106.751,226.402 109.400 C 226.218 110.060,225.953 111.279,225.814 112.109 C 225.675 112.938,225.029 114.222,224.380 114.961 C 223.731 115.701,223.200 116.501,223.200 116.739 C 223.200 116.977,222.660 117.725,222.000 118.400 C 221.340 119.075,220.800 119.789,220.800 119.987 C 220.800 120.184,220.434 120.462,219.988 120.604 C 219.541 120.746,218.745 121.325,218.220 121.892 C 216.931 123.282,210.404 124.063,207.612 123.162 C 204.273 122.084,204.458 123.430,204.232 98.600 C 204.041 77.589,203.994 76.492,203.195 74.200 C 201.953 70.639,201.637 64.107,202.649 62.916 C 204.671 60.536,209.129 59.938,212.873 61.544 M272.588 62.155 C 276.184 64.511,273.384 69.078,267.901 69.799 C 265.287 70.143,265.291 70.128,265.147 81.004 C 265.005 91.738,264.976 91.600,267.401 91.600 C 273.675 91.600,272.454 99.388,266.000 100.541 L 263.400 101.005 263.285 106.803 C 263.128 114.741,262.919 114.284,266.793 114.460 C 271.683 114.682,274.242 117.758,272.400 121.200 C 270.664 124.444,258.694 124.585,256.255 121.391 C 253.823 118.205,253.489 94.934,255.803 89.800 C 256.194 88.931,256.419 85.349,256.618 76.800 C 256.898 64.767,257.045 63.691,258.579 62.417 C 260.123 61.136,270.730 60.938,272.588 62.155 M328.376 61.578 C 333.733 62.612,331.756 69.106,325.956 69.526 C 323.024 69.738,323.246 68.812,323.109 81.397 L 323.000 91.394 325.181 91.663 C 331.114 92.396,329.441 99.838,323.216 100.400 L 321.000 100.600 321.000 107.400 L 321.000 114.200 323.400 114.303 C 329.393 114.560,332.354 118.225,329.300 121.605 C 326.546 124.653,315.626 124.412,313.438 121.255 C 311.568 118.557,311.292 95.952,313.055 89.916 C 313.481 88.458,313.780 84.754,314.016 78.000 C 314.511 63.868,314.527 63.695,315.462 62.761 C 316.799 61.423,324.107 60.754,328.376 61.578 M72.099 62.468 C 72.483 62.665,73.176 63.568,73.638 64.475 L 74.479 66.123 73.581 68.041 C 72.478 70.396,72.351 70.452,67.400 70.755 L 63.400 71.000 63.341 95.084 C 63.285 117.647,63.235 119.262,62.541 120.676 C 61.554 122.685,59.635 123.456,57.230 122.808 C 54.354 122.034,54.431 122.754,54.486 96.958 C 54.541 70.840,54.593 71.425,52.260 71.766 C 46.344 72.629,45.935 72.586,44.100 70.907 C 40.869 67.952,41.976 65.274,47.115 63.612 C 51.652 62.144,69.847 61.311,72.099 62.468 M140.000 62.400 C 142.801 65.201,139.695 69.598,134.914 69.600 C 133.000 69.600,132.800 70.365,132.799 77.674 C 132.799 81.659,132.568 85.513,132.205 87.573 C 131.509 91.532,131.347 91.243,134.492 91.673 C 140.663 92.517,139.427 99.748,133.000 100.398 L 131.000 100.600 130.639 104.919 C 130.425 107.485,130.425 110.328,130.639 111.919 L 131.000 114.600 134.079 114.800 C 140.984 115.249,141.883 122.280,135.158 123.235 C 128.675 124.156,124.791 123.474,123.059 121.112 C 121.326 118.747,121.293 99.331,123.002 86.600 C 123.327 84.180,123.737 78.130,123.913 73.157 C 124.347 60.934,123.686 61.743,133.300 61.654 C 138.708 61.605,139.267 61.667,140.000 62.400 M235.962 62.629 C 237.831 64.202,238.130 65.989,237.831 73.800 C 237.620 79.304,237.481 101.227,237.642 103.600 C 237.664 103.930,237.581 106.312,237.456 108.894 C 237.177 114.708,237.084 114.618,243.049 114.280 C 249.537 113.912,250.800 114.591,250.800 118.446 C 250.800 122.686,249.318 123.312,239.705 123.130 L 232.810 123.000 231.105 121.293 L 229.400 119.587 229.400 92.493 C 229.400 62.712,229.361 63.216,231.768 62.168 C 233.594 61.373,234.600 61.484,235.962 62.629 M83.349 62.831 C 85.326 64.387,85.345 64.533,85.655 80.600 C 85.816 88.960,86.077 100.933,86.234 107.206 C 86.597 121.676,86.029 123.632,81.800 122.485 C 79.714 121.919,79.206 120.245,79.167 113.800 C 79.148 110.720,78.986 107.210,78.808 106.000 C 77.543 97.440,77.241 93.053,77.014 80.000 C 76.785 66.850,76.820 65.697,77.483 64.406 C 78.712 62.014,81.395 61.294,83.349 62.831 M173.144 62.440 C 174.876 63.044,176.092 65.483,175.570 67.304 C 174.832 69.877,172.963 70.789,168.400 70.804 C 164.693 70.816,164.908 70.147,165.196 80.800 C 165.621 96.517,164.937 118.211,163.951 120.295 C 160.642 127.287,154.199 121.210,155.947 112.746 C 156.277 111.149,156.425 104.757,156.426 92.116 L 156.427 73.800 155.391 72.900 C 154.267 71.923,153.121 71.807,150.520 72.407 C 146.211 73.402,142.135 67.944,145.107 65.159 C 147.623 62.801,168.399 60.786,173.144 62.440 M213.461 103.663 C 212.888 114.336,213.035 114.947,215.552 112.302 C 216.443 111.366,217.628 110.143,218.186 109.585 C 219.554 108.216,219.670 104.390,218.377 103.296 C 217.924 102.913,217.273 102.015,216.931 101.300 C 216.589 100.585,216.081 100.000,215.803 100.000 C 215.525 100.000,215.074 99.730,214.800 99.400 C 213.879 98.290,213.724 98.782,213.461 103.663 M289.131 157.163 C 290.215 157.743,292.614 160.132,292.921 160.936 C 293.376 162.127,293.309 334.462,292.853 335.660 C 292.636 336.231,291.823 337.092,291.046 337.572 L 289.634 338.444 201.190 338.460 C 115.789 338.475,112.718 338.450,111.915 337.738 C 109.406 335.511,109.589 342.542,109.605 248.731 C 109.613 202.019,109.768 163.170,109.950 162.400 C 110.411 160.441,112.641 157.288,113.710 157.081 C 115.545 156.726,288.467 156.807,289.131 157.163 M115.695 179.251 C 115.609 192.463,115.665 193.956,116.261 194.451 C 116.817 194.912,130.447 195.001,201.761 195.005 L 286.600 195.010 201.720 194.805 C 143.897 194.665,116.708 194.468,116.425 194.185 C 116.158 193.918,115.971 188.577,115.900 179.185 L 115.790 164.600 115.695 179.251 M133.833 170.446 C 132.263 171.681,132.851 171.813,134.609 170.620 C 135.435 170.059,135.841 169.600,135.510 169.600 C 135.179 169.600,134.424 169.981,133.833 170.446 M136.800 169.928 C 137.130 170.078,137.901 170.539,138.512 170.954 C 139.124 171.369,139.719 171.615,139.834 171.500 C 140.117 171.217,137.445 169.593,136.753 169.628 C 136.322 169.650,136.332 169.716,136.800 169.928 M131.400 172.065 C 130.960 172.307,130.240 172.845,129.800 173.261 C 129.360 173.677,128.505 174.386,127.900 174.838 C 127.295 175.289,126.805 175.870,126.812 176.129 C 126.819 176.388,127.008 176.285,127.232 175.900 C 127.456 175.515,128.126 174.932,128.720 174.605 C 129.769 174.027,132.756 171.588,132.385 171.612 C 132.283 171.619,131.840 171.823,131.400 172.065 M141.432 172.286 C 142.681 173.010,143.310 173.498,145.038 175.082 C 145.567 175.567,146.000 175.820,146.000 175.644 C 146.000 175.099,142.247 172.130,141.197 171.844 C 140.345 171.612,140.380 171.677,141.432 172.286 M146.109 178.000 C 146.109 178.990,146.187 179.395,146.282 178.900 C 146.378 178.405,146.378 177.595,146.282 177.100 C 146.187 176.605,146.109 177.010,146.109 178.000 M126.501 178.200 C 126.505 179.080,126.587 179.393,126.683 178.895 C 126.779 178.398,126.775 177.678,126.675 177.295 C 126.575 176.913,126.496 177.320,126.501 178.200 M127.200 182.268 C 127.200 182.501,127.533 183.121,127.940 183.646 C 128.347 184.171,128.783 184.870,128.909 185.200 C 129.106 185.720,129.141 185.717,129.168 185.178 C 129.186 184.835,128.750 183.945,128.200 183.200 C 127.650 182.455,127.200 182.035,127.200 182.268 M145.002 184.387 C 144.433 187.753,142.590 188.827,136.400 189.396 C 132.905 189.718,130.839 189.010,129.901 187.171 C 129.496 186.379,129.201 186.093,129.201 186.494 C 129.200 186.875,129.727 187.775,130.370 188.494 L 131.541 189.800 136.337 189.773 C 141.357 189.745,142.844 189.218,144.664 186.821 C 145.152 186.179,145.751 183.217,145.453 182.920 C 145.358 182.824,145.155 183.484,145.002 184.387 M115.795 268.000 C 115.795 302.870,115.842 317.135,115.900 299.700 C 115.958 282.265,115.958 253.735,115.900 236.300 C 115.842 218.865,115.795 233.130,115.795 268.000 M125.323 224.478 C 124.841 224.711,124.338 225.184,124.206 225.528 C 124.026 225.998,124.181 225.961,124.825 225.378 C 125.667 224.615,127.098 224.596,198.942 224.398 L 272.200 224.196 199.200 224.125 C 148.498 224.076,125.932 224.184,125.323 224.478 M273.391 225.300 C 274.446 226.216,275.110 228.642,274.515 229.401 C 274.342 229.621,273.519 230.386,272.686 231.101 L 271.172 232.400 199.573 232.400 C 121.743 232.400,126.308 232.535,124.461 230.186 C 123.800 229.346,123.637 228.725,123.794 227.638 L 124.001 226.200 123.438 227.400 C 122.826 228.704,122.878 228.870,124.474 230.741 C 126.304 232.885,123.189 232.800,199.635 232.800 L 271.618 232.800 273.409 231.149 C 275.953 228.804,275.503 224.400,272.719 224.400 C 272.519 224.400,272.822 224.805,273.391 225.300 M126.883 260.284 C 124.992 260.647,122.501 263.921,123.600 264.600 C 123.824 264.738,124.000 264.427,124.000 263.893 C 124.000 260.268,120.729 260.420,199.200 260.419 C 275.904 260.419,272.659 260.295,274.557 263.303 C 275.107 264.176,273.009 267.250,271.592 267.644 C 270.644 267.908,270.640 267.922,271.500 267.960 C 273.095 268.031,275.446 265.033,275.045 263.438 C 274.912 262.906,274.047 261.915,273.123 261.236 L 271.442 260.000 199.621 260.054 C 160.120 260.084,127.387 260.188,126.883 260.284 M124.016 265.518 C 123.984 266.564,125.912 268.002,127.282 267.954 C 128.048 267.927,128.265 267.836,127.800 267.738 C 127.360 267.645,126.600 267.484,126.110 267.379 C 125.621 267.275,124.953 266.697,124.626 266.095 C 124.299 265.493,124.025 265.233,124.016 265.518 M125.754 295.377 C 123.693 296.821,122.717 298.699,123.406 299.894 L 124.044 301.000 123.829 299.686 C 123.650 298.590,123.840 298.126,124.976 296.886 L 126.338 295.400 198.965 295.297 L 271.591 295.194 273.234 296.679 C 275.584 298.802,275.152 301.307,272.200 302.681 L 271.000 303.240 272.200 303.005 C 275.485 302.362,276.182 298.902,273.535 296.384 L 271.870 294.800 199.224 294.800 C 136.567 294.800,126.465 294.879,125.754 295.377 M10.635 298.909 C 10.455 299.519,9.946 300.273,9.502 300.584 C 8.740 301.117,8.678 301.761,8.382 312.088 C 8.210 318.105,7.971 323.651,7.852 324.414 C 7.368 327.506,6.013 349.448,6.012 354.200 C 6.012 356.180,5.795 360.710,5.529 364.267 C 4.963 371.861,5.009 372.000,8.075 372.000 C 11.888 372.000,11.522 375.485,11.515 339.307 C 11.509 307.375,11.277 296.724,10.635 298.909 M124.000 301.501 C 124.000 302.260,125.705 303.203,126.989 303.154 C 128.084 303.112,128.050 303.079,126.633 302.806 C 125.771 302.640,124.826 302.176,124.533 301.776 C 124.240 301.375,124.000 301.251,124.000 301.501 M388.523 313.000 C 388.517 316.116,388.610 317.398,388.756 316.200 C 388.890 315.100,388.895 312.760,388.766 311.000 C 388.567 308.268,388.531 308.561,388.523 313.000 M388.412 347.900 L 388.400 376.800 389.500 376.794 C 391.803 376.781,391.999 374.941,391.012 362.600 C 390.138 351.664,389.565 340.965,389.353 331.600 C 388.880 310.742,388.424 318.638,388.412 347.900 M116.538 332.094 C 117.148 332.482,286.298 332.488,286.538 332.100 C 286.640 331.935,248.328 331.800,201.400 331.800 C 154.472 331.800,116.284 331.932,116.538 332.094 M328.200 389.626 C 306.999 389.795,298.887 389.992,296.200 390.405 C 290.713 391.248,293.190 391.504,309.600 391.791 C 325.241 392.064,334.025 392.541,339.200 393.398 C 342.159 393.887,359.881 394.767,368.395 394.846 C 371.648 394.877,371.984 394.646,371.994 392.376 C 372.008 389.195,373.178 389.268,328.200 389.626 M24.700 390.465 C 22.148 391.397,24.019 391.599,34.900 391.565 C 49.328 391.520,52.367 391.198,45.000 390.493 C 38.874 389.908,26.274 389.890,24.700 390.465 " stroke="none" fill="#f3ef92" fill-rule="evenodd"></path><path id="path1" d="M21.200 1.800 C 21.200 3.516,21.146 3.600,20.050 3.600 C 17.319 3.600,16.400 4.025,16.400 5.290 C 16.400 6.841,14.375 8.800,12.771 8.800 C 11.323 8.800,8.908 11.121,8.728 12.685 C 8.627 13.565,8.368 13.827,7.500 13.927 C 6.438 14.049,6.400 14.135,6.400 16.427 L 6.400 18.800 4.214 18.800 C 0.909 18.800,1.029 18.066,1.350 36.392 C 1.624 51.994,2.187 59.196,3.158 59.519 C 3.464 59.621,3.609 62.715,3.630 69.533 C 3.701 93.474,4.340 102.400,5.980 102.400 C 6.269 102.400,6.401 110.464,6.403 128.300 C 6.406 155.657,6.628 160.340,7.990 161.789 C 9.230 163.110,9.271 219.384,8.031 219.708 C 6.583 220.086,6.405 222.301,6.402 239.900 C 6.400 254.537,6.321 256.800,5.809 256.800 C 4.270 256.800,4.063 258.195,3.765 270.600 C 3.505 281.418,3.403 282.699,2.729 283.610 C 1.654 285.065,1.226 292.140,1.212 308.700 C 1.202 320.606,1.121 322.400,0.600 322.400 C 0.072 322.400,0.000 325.800,0.000 350.600 C 0.000 378.315,0.013 378.800,0.782 378.800 C 1.777 378.800,3.600 380.602,3.600 381.585 C 3.600 382.688,4.022 383.598,4.543 383.617 C 4.794 383.626,5.442 384.166,5.981 384.817 C 6.547 385.500,7.351 386.000,7.881 386.000 C 8.595 386.000,8.800 386.224,8.800 387.000 C 8.800 388.206,11.632 391.200,12.773 391.200 C 13.320 391.200,13.584 391.523,13.673 392.300 C 13.778 393.212,14.018 393.421,15.076 393.524 C 16.125 393.625,16.373 393.838,16.476 394.724 C 16.573 395.562,16.843 395.828,17.700 395.927 C 18.611 396.031,18.800 396.248,18.800 397.184 C 18.800 398.826,18.517 398.802,37.133 398.780 C 59.150 398.753,78.400 397.943,79.339 397.004 C 79.683 396.660,85.573 396.455,100.982 396.251 C 123.246 395.957,124.800 395.809,124.800 393.985 C 124.800 393.789,137.453 393.583,153.500 393.517 C 183.714 393.394,184.800 393.327,184.800 391.590 C 184.800 390.824,209.810 391.089,210.451 391.862 C 211.814 393.505,212.882 393.600,230.072 393.600 L 246.570 393.600 247.443 394.695 C 248.439 395.944,252.736 396.296,267.851 396.366 C 273.449 396.392,275.205 396.524,275.554 396.945 C 276.411 397.977,287.507 398.750,301.900 398.779 C 310.957 398.797,312.400 398.882,312.400 399.400 C 312.400 399.929,316.356 400.000,345.600 400.000 C 378.533 400.000,378.800 399.994,378.800 399.200 C 378.800 398.658,379.067 398.400,379.627 398.400 C 380.422 398.400,383.578 396.103,383.593 395.514 C 383.597 395.356,384.140 394.675,384.800 394.000 C 385.460 393.325,386.000 392.419,386.000 391.986 C 386.000 391.391,386.273 391.200,387.125 391.200 C 387.903 391.200,388.515 390.841,389.110 390.036 C 389.584 389.395,390.581 388.670,391.327 388.424 C 392.808 387.935,393.600 386.666,393.600 384.781 C 393.600 383.756,393.747 383.600,394.711 383.600 C 396.139 383.600,397.433 382.683,398.260 381.085 C 399.586 378.519,398.348 341.389,396.905 340.453 C 396.665 340.297,396.430 332.241,396.294 319.485 C 396.060 297.582,395.987 296.800,394.191 296.800 C 393.675 296.800,393.599 293.213,393.594 268.700 C 393.587 239.311,393.441 236.551,391.834 235.375 C 390.698 234.544,390.890 182.982,392.033 181.764 C 393.435 180.273,393.581 178.376,393.590 161.514 L 393.600 145.228 394.735 144.066 C 396.051 142.721,396.400 138.631,396.400 124.586 C 396.400 118.821,396.517 117.201,396.961 116.832 C 398.054 115.926,398.723 105.721,398.768 89.300 C 398.796 79.181,398.881 77.600,399.400 77.600 C 399.928 77.600,400.000 74.200,400.000 49.400 C 400.000 21.685,399.987 21.200,399.218 21.200 C 398.070 21.200,396.541 19.475,396.232 17.832 L 395.964 16.400 393.582 16.400 L 391.200 16.400 391.200 14.438 C 391.200 12.801,390.983 12.221,389.890 10.938 C 387.334 7.938,385.528 6.400,384.560 6.400 C 383.769 6.400,383.600 6.197,383.600 5.250 C 383.600 4.292,383.399 4.060,382.400 3.860 C 381.549 3.690,381.200 3.388,381.200 2.824 C 381.200 1.254,379.928 1.063,371.289 1.332 C 363.405 1.577,360.400 2.091,360.400 3.195 C 360.400 3.362,351.535 3.578,340.700 3.675 C 320.090 3.859,319.200 3.939,319.200 5.607 C 319.200 6.370,318.622 6.387,289.426 6.493 L 259.652 6.600 258.504 7.700 L 257.356 8.800 215.325 8.800 C 173.715 8.800,173.291 8.792,173.085 8.005 C 172.696 6.517,171.260 6.400,153.364 6.400 L 135.980 6.400 135.621 5.455 C 135.080 4.032,134.358 3.943,121.500 3.713 C 114.955 3.596,109.600 3.382,109.600 3.236 C 109.600 1.594,107.605 1.404,88.900 1.271 C 73.544 1.162,70.800 1.056,70.800 0.571 C 70.800 0.082,67.221 0.000,46.000 0.000 L 21.200 0.000 21.200 1.800 M39.400 2.398 C 42.040 2.603,44.932 3.035,45.827 3.359 C 47.038 3.796,50.365 4.012,58.827 4.202 C 73.185 4.525,80.777 5.013,82.472 5.721 C 84.046 6.378,87.883 6.676,101.630 7.205 C 107.257 7.421,112.747 7.789,113.830 8.022 C 114.914 8.255,116.610 8.608,117.600 8.806 C 118.590 9.004,124.795 9.365,131.388 9.609 C 143.465 10.054,146.660 10.440,150.840 11.956 C 152.298 12.485,155.022 12.922,158.640 13.208 C 161.698 13.449,164.438 13.725,164.729 13.822 C 165.871 14.200,269.663 14.002,276.200 13.608 C 288.600 12.863,294.099 12.315,296.724 11.565 C 300.799 10.399,306.052 10.044,325.827 9.598 C 335.962 9.369,345.727 9.006,347.527 8.791 C 349.327 8.576,352.239 8.228,353.999 8.018 C 355.758 7.807,361.563 7.513,366.899 7.364 C 378.505 7.039,378.258 6.950,377.905 11.353 L 377.699 13.920 380.888 14.065 C 383.658 14.190,384.179 14.333,384.839 15.149 C 385.631 16.126,386.083 383.459,385.294 384.640 C 385.132 384.882,384.607 385.287,384.126 385.540 C 382.991 386.138,18.123 386.209,16.042 385.612 C 14.066 385.045,13.366 384.133,13.537 382.346 C 13.669 380.961,13.586 380.816,12.540 380.600 C 8.004 379.661,7.417 379.142,8.758 377.259 C 9.724 375.903,9.504 375.595,7.000 374.791 C 4.521 373.995,2.446 372.521,2.151 371.346 C 1.771 369.833,2.326 359.918,3.036 355.531 C 3.781 350.924,4.264 343.079,4.560 330.800 C 4.776 321.812,5.259 316.707,5.978 315.814 C 6.403 315.286,6.703 310.878,7.232 297.400 C 7.530 289.801,7.873 285.592,8.391 283.200 C 8.889 280.894,9.273 276.453,9.581 269.400 C 10.125 256.975,10.573 252.609,11.562 250.087 C 13.416 245.360,13.637 238.734,13.639 187.800 C 13.641 132.514,13.200 118.434,11.198 109.800 C 10.319 106.009,10.051 100.685,9.366 73.400 C 9.225 67.798,8.867 61.993,8.551 60.200 C 7.960 56.844,7.301 43.372,7.112 30.764 C 6.982 22.106,7.017 22.000,10.075 22.000 C 12.874 22.000,13.635 21.516,13.203 20.010 C 12.310 16.895,14.839 14.000,18.454 14.000 L 20.470 14.000 20.217 12.500 C 19.837 10.246,20.666 9.302,22.525 9.872 C 24.134 10.366,24.495 9.878,25.008 6.517 C 25.674 2.146,27.916 1.505,39.400 2.398 M389.761 20.455 C 390.551 20.815,390.784 21.252,390.880 22.546 C 390.992 24.067,391.118 24.225,392.692 24.804 C 396.873 26.343,398.012 29.114,396.617 34.353 C 396.265 35.677,395.957 39.530,395.817 44.353 C 395.194 65.859,394.699 76.448,394.198 79.000 C 393.881 80.612,393.551 85.874,393.419 91.400 C 392.894 113.404,392.584 118.414,391.584 121.042 C 391.157 122.165,390.813 127.310,390.023 144.400 C 389.647 152.543,389.414 154.400,388.772 154.400 C 387.016 154.400,386.738 143.273,386.955 81.600 C 387.191 14.703,386.985 19.190,389.761 20.455 M93.307 58.500 C 92.204 59.911,91.991 61.810,92.380 66.778 C 94.008 87.562,94.157 90.584,94.178 103.200 C 94.190 110.570,94.068 117.069,93.907 117.642 C 93.671 118.481,93.867 118.976,94.920 120.193 L 96.225 121.703 97.712 120.259 C 99.435 118.586,99.287 120.024,99.405 103.800 C 99.530 86.591,99.533 86.524,100.229 85.829 C 101.414 84.643,102.034 85.586,102.638 89.492 C 103.110 92.544,105.514 92.778,107.383 89.955 C 110.117 85.822,110.600 88.188,110.600 105.732 C 110.600 122.004,110.571 121.829,113.173 121.517 C 114.790 121.323,114.903 119.985,115.002 99.800 C 115.092 81.609,115.232 78.888,116.390 72.835 C 117.152 68.850,117.348 61.889,116.722 61.067 C 115.672 59.691,113.583 60.666,112.828 62.883 C 112.483 63.899,111.904 65.061,111.542 65.465 C 111.179 65.869,110.663 67.280,110.395 68.600 C 110.126 69.920,109.551 71.500,109.118 72.111 C 108.684 72.723,108.161 73.833,107.955 74.579 C 106.593 79.512,103.271 79.049,102.027 73.754 C 101.763 72.629,101.108 70.844,100.573 69.787 C 100.038 68.729,99.600 67.549,99.600 67.163 C 99.600 66.777,99.143 65.918,98.583 65.253 C 98.024 64.589,97.302 63.270,96.979 62.323 C 96.112 59.782,94.013 57.597,93.307 58.500 M187.353 62.321 C 186.138 63.781,186.092 63.986,185.613 70.010 C 185.342 73.415,184.872 77.730,184.569 79.600 C 184.266 81.470,183.563 86.870,183.007 91.600 C 182.450 96.330,181.813 100.920,181.590 101.800 C 181.367 102.680,180.978 106.772,180.725 110.893 C 180.191 119.607,180.342 120.400,182.543 120.400 C 184.458 120.400,184.700 119.485,184.936 111.348 C 185.201 102.234,186.401 99.661,190.107 100.262 C 192.406 100.635,192.485 100.901,192.854 109.511 C 193.301 119.940,193.759 121.600,196.193 121.600 C 196.773 121.600,198.083 118.459,197.737 117.899 C 197.605 117.684,197.265 110.644,196.983 102.254 C 196.627 91.677,196.284 86.203,195.864 84.400 C 195.531 82.970,195.046 79.732,194.786 77.204 C 194.527 74.676,193.989 71.526,193.591 70.204 C 193.193 68.882,192.743 66.836,192.590 65.658 C 192.064 61.590,189.382 59.881,187.353 62.321 M345.800 61.571 C 342.892 61.872,340.466 63.137,341.034 64.056 C 341.470 64.761,343.862 65.600,345.435 65.600 C 349.075 65.600,350.629 67.438,349.217 70.072 C 348.823 70.809,348.272 72.489,347.993 73.806 C 347.714 75.123,347.175 76.755,346.796 77.434 C 346.416 78.112,345.902 79.834,345.654 81.261 C 345.405 82.687,344.773 85.114,344.249 86.655 C 343.725 88.196,343.075 90.794,342.805 92.428 C 342.535 94.063,341.980 96.210,341.572 97.200 C 341.164 98.190,340.565 101.102,340.240 103.672 C 339.916 106.241,339.355 108.913,338.995 109.609 C 338.636 110.305,338.165 112.596,337.950 114.700 C 337.734 116.804,337.301 119.141,336.987 119.894 C 336.443 121.195,336.468 121.330,337.508 122.663 L 338.600 124.065 341.800 123.850 C 349.734 123.318,352.400 122.400,352.400 120.200 C 352.400 118.145,351.751 117.884,347.446 118.207 L 343.667 118.490 343.076 117.345 C 342.461 116.153,342.664 113.445,343.578 110.660 C 343.805 109.967,344.270 106.992,344.612 104.048 C 344.953 101.105,345.496 98.187,345.819 97.564 C 346.141 96.941,346.687 95.210,347.033 93.716 C 347.379 92.222,347.992 90.460,348.396 89.800 C 348.800 89.140,349.324 87.544,349.560 86.254 C 349.797 84.964,350.350 83.164,350.790 82.254 C 351.229 81.344,351.860 78.855,352.192 76.722 C 352.523 74.589,353.156 71.928,353.597 70.807 C 354.125 69.467,354.400 67.830,354.400 66.023 L 354.400 63.276 352.629 62.238 C 350.809 61.171,350.214 61.113,345.800 61.571 M205.428 63.330 C 204.589 63.943,204.494 67.626,205.209 71.800 C 205.435 73.120,205.729 84.316,205.863 96.680 L 206.106 119.160 207.460 120.638 L 208.814 122.116 211.756 121.867 C 214.657 121.622,215.360 121.417,217.874 120.078 C 219.204 119.370,220.567 117.707,222.036 115.000 C 222.514 114.120,223.286 112.860,223.752 112.200 C 225.290 110.023,225.005 102.132,223.268 98.774 C 221.725 95.793,219.913 93.953,217.448 92.862 C 215.340 91.930,214.931 91.367,215.714 90.475 C 216.040 90.104,216.691 89.035,217.162 88.100 C 217.632 87.165,218.179 86.400,218.377 86.400 C 220.728 86.400,220.726 72.727,218.375 69.769 C 217.746 68.977,217.130 68.010,217.006 67.619 C 216.769 66.871,213.613 64.055,212.126 63.265 C 210.925 62.626,206.330 62.671,205.428 63.330 M127.786 63.575 C 125.855 64.371,125.815 64.613,125.539 77.361 C 125.350 86.092,125.048 91.104,124.440 95.600 C 122.764 107.987,123.857 120.557,126.705 121.640 C 127.809 122.060,131.284 122.103,134.346 121.735 C 139.069 121.168,138.544 116.518,133.801 116.899 C 131.198 117.108,130.946 117.043,130.086 115.942 C 128.731 114.207,128.202 102.717,129.373 100.451 C 130.061 99.122,131.098 98.400,132.323 98.400 C 134.495 98.400,136.895 96.777,136.636 95.482 C 136.317 93.884,135.844 93.614,133.362 93.606 C 131.016 93.599,129.881 92.715,129.894 90.905 C 129.937 84.823,130.560 71.479,130.855 70.299 C 131.343 68.352,132.376 67.752,135.800 67.427 C 139.175 67.107,139.789 66.640,139.302 64.759 L 138.950 63.400 133.775 63.320 C 130.929 63.275,128.234 63.390,127.786 63.575 M259.578 64.622 L 258.200 66.044 257.949 79.122 C 257.742 89.902,257.548 93.033,256.849 96.940 C 255.841 102.570,255.728 109.820,256.592 113.400 C 256.911 114.720,257.178 116.469,257.186 117.286 C 257.222 121.040,258.553 122.020,263.550 121.977 C 267.611 121.942,268.957 121.563,270.170 120.115 L 271.246 118.830 269.952 117.673 C 268.738 116.589,268.492 116.529,266.006 116.707 C 262.042 116.990,261.838 116.571,261.668 107.794 C 261.531 100.669,261.970 98.800,263.783 98.800 C 269.461 98.800,271.917 93.965,266.493 93.467 C 262.278 93.080,262.407 93.486,262.663 81.486 C 262.959 67.612,262.828 67.936,268.359 67.433 C 271.852 67.115,272.751 66.151,271.586 63.974 C 271.210 63.271,270.705 63.200,266.064 63.200 L 260.957 63.200 259.578 64.622 M317.303 64.433 C 315.821 66.088,315.665 67.392,315.626 78.400 C 315.607 83.938,315.358 89.690,315.021 92.400 C 313.733 102.742,313.933 116.628,315.422 120.191 C 316.541 122.869,325.781 122.807,327.549 120.110 L 328.465 118.712 327.410 117.611 C 326.412 116.569,326.208 116.521,323.580 116.709 L 320.804 116.907 320.243 115.554 C 319.523 113.816,319.021 106.397,319.391 102.951 C 319.705 100.017,320.798 98.400,322.468 98.400 C 323.938 98.400,326.760 97.156,326.999 96.403 C 327.452 94.976,326.525 93.600,325.110 93.598 C 320.913 93.591,319.956 92.437,320.466 88.000 C 320.656 86.350,320.953 81.454,321.126 77.120 C 321.504 67.628,321.403 67.835,325.844 67.460 C 329.493 67.152,329.600 67.095,329.600 65.456 C 329.600 63.365,329.156 63.200,323.523 63.200 L 318.406 63.200 317.303 64.433 M232.244 64.978 L 231.193 66.356 230.804 77.678 C 229.826 106.160,230.296 117.682,232.528 119.916 L 234.012 121.400 239.802 121.537 C 247.588 121.722,250.387 120.522,249.235 117.492 C 248.650 115.953,248.227 115.849,242.970 115.948 C 237.171 116.057,236.150 115.851,235.414 114.427 C 234.835 113.308,234.837 87.235,235.417 72.985 C 235.762 64.507,234.682 61.782,232.244 64.978 M60.220 64.417 C 58.471 64.615,54.609 64.960,51.639 65.183 C 45.846 65.620,45.378 65.809,44.966 67.868 C 44.590 69.752,45.665 70.161,50.271 69.887 C 55.202 69.592,55.492 69.818,56.051 74.400 C 56.710 79.793,56.946 96.403,56.432 101.182 C 56.182 103.502,55.950 108.478,55.916 112.240 L 55.853 119.080 57.227 120.320 L 58.600 121.559 59.919 120.254 L 61.238 118.949 61.477 112.374 C 61.609 108.758,61.735 97.796,61.758 88.012 L 61.800 70.225 62.800 69.718 C 63.350 69.440,65.093 69.209,66.674 69.206 C 70.241 69.199,71.389 68.780,71.906 67.299 C 72.905 64.433,68.873 63.438,60.220 64.417 M79.674 64.925 L 78.348 65.800 78.561 71.800 C 78.880 80.788,79.511 93.120,79.964 99.200 C 80.185 102.170,80.373 107.717,80.383 111.526 C 80.402 119.348,80.575 120.000,82.623 120.000 C 84.958 120.000,85.004 119.632,84.448 105.489 C 84.178 98.620,83.795 87.780,83.597 81.400 C 83.057 64.004,82.787 62.870,79.674 64.925 M163.800 64.254 C 163.360 64.334,159.718 64.658,155.707 64.974 C 147.443 65.626,146.260 65.986,146.075 67.903 C 145.898 69.728,147.129 70.140,152.426 70.029 C 158.396 69.904,157.795 67.175,157.829 94.562 C 157.857 117.616,157.989 120.795,158.918 120.805 C 159.183 120.808,159.790 120.915,160.266 121.043 C 161.998 121.508,162.171 120.364,162.601 105.600 C 162.823 98.010,162.880 87.120,162.729 81.400 C 162.397 68.811,162.075 69.600,167.659 69.309 C 171.364 69.115,171.412 69.100,172.647 67.671 L 173.895 66.229 172.492 65.114 C 171.118 64.022,167.212 63.636,163.800 64.254 M214.668 73.200 C 216.003 75.854,215.219 84.000,213.630 84.000 C 212.029 84.000,209.509 72.111,210.644 69.915 L 211.256 68.731 212.610 70.266 C 213.355 71.110,214.281 72.430,214.668 73.200 M191.945 86.267 C 193.138 92.211,191.020 96.740,188.157 94.364 C 186.677 93.136,187.990 85.888,189.909 84.698 C 191.440 83.748,191.439 83.747,191.945 86.267 M216.075 97.552 C 218.243 98.377,220.188 102.227,220.328 105.974 L 220.457 109.400 218.413 112.045 C 217.290 113.500,215.733 115.030,214.955 115.445 L 213.541 116.200 212.514 115.012 L 211.487 113.825 211.771 106.020 C 212.103 96.879,212.460 96.178,216.075 97.552 M135.200 158.400 C 114.415 158.606,114.021 158.637,113.265 160.121 C 112.902 160.834,112.213 195.679,112.453 201.200 C 112.477 201.750,112.561 232.338,112.641 269.173 C 112.743 315.902,112.915 336.275,113.213 336.573 C 113.646 337.006,286.855 337.450,288.621 337.023 C 289.072 336.914,289.929 336.081,290.524 335.172 L 291.605 333.520 291.503 247.625 L 291.400 161.729 289.667 160.065 L 287.935 158.400 268.067 158.392 C 257.140 158.388,227.320 158.343,201.800 158.292 C 176.280 158.242,146.310 158.290,135.200 158.400 M287.371 162.368 C 288.484 163.598,288.174 197.904,287.038 199.158 L 286.276 200.000 202.038 199.960 C 155.707 199.938,117.372 199.800,116.848 199.653 C 114.467 198.986,114.007 195.601,114.003 178.682 L 114.000 163.564 114.982 162.582 L 115.964 161.600 201.320 161.600 C 284.978 161.600,286.690 161.615,287.371 162.368 M134.565 172.766 C 127.671 177.124,126.901 178.405,129.259 181.595 C 129.677 182.159,130.239 183.516,130.509 184.609 C 131.135 187.143,132.175 187.517,137.758 187.214 C 142.120 186.978,141.902 187.119,143.006 183.800 C 145.259 177.026,144.805 175.762,139.200 173.190 C 138.210 172.735,137.130 172.222,136.800 172.048 C 136.416 171.847,135.611 172.105,134.565 172.766 M287.269 202.262 C 288.305 203.200,288.423 331.621,287.390 333.620 L 286.779 334.800 201.459 334.800 L 116.139 334.800 115.170 333.768 L 114.200 332.736 114.096 268.153 L 113.993 203.571 114.978 202.585 L 115.964 201.600 201.250 201.600 C 280.049 201.600,286.593 201.650,287.269 202.262 M125.991 227.025 C 124.782 230.203,119.763 230.000,199.577 230.000 C 279.100 230.000,272.921 230.214,272.141 227.492 L 271.770 226.200 199.076 226.099 L 126.381 225.998 125.991 227.025 M126.111 263.249 C 125.422 263.938,125.953 264.770,127.497 265.415 C 128.906 266.004,268.461 266.349,270.620 265.769 C 271.812 265.449,272.576 264.094,271.974 263.369 C 271.352 262.619,126.860 262.500,126.111 263.249 M389.602 280.218 C 389.824 281.967,390.101 290.688,390.218 299.599 C 390.457 317.804,390.965 328.157,391.808 332.000 C 392.700 336.070,392.782 337.789,393.048 358.200 L 393.298 377.400 392.313 378.310 C 390.008 380.438,387.626 380.037,386.967 377.410 C 386.370 375.033,387.097 285.570,387.749 281.200 C 388.093 278.890,388.380 276.829,388.387 276.620 C 388.437 275.139,389.272 277.613,389.602 280.218 M126.248 298.116 C 125.269 298.831,125.776 300.735,127.077 301.229 C 127.663 301.452,156.697 301.600,199.795 301.600 L 271.538 301.600 272.005 300.185 C 272.932 297.376,279.248 297.600,199.227 297.600 C 140.867 297.600,126.817 297.699,126.248 298.116 M119.107 387.197 C 125.711 387.603,129.026 388.218,127.928 388.832 C 127.176 389.253,118.273 389.803,102.200 390.421 C 90.652 390.866,88.472 391.053,82.000 392.156 C 79.494 392.583,71.349 392.863,51.025 393.220 L 23.449 393.705 22.501 392.603 C 21.979 391.996,21.653 391.238,21.776 390.917 C 21.899 390.597,22.000 389.822,22.000 389.196 C 22.000 386.631,18.743 386.799,68.129 386.810 C 92.808 386.816,115.748 386.990,119.107 387.197 M372.971 387.429 C 373.317 387.774,373.600 388.237,373.600 388.458 C 373.600 388.678,374.055 388.500,374.612 388.062 C 377.515 385.778,380.000 386.685,380.000 390.027 C 380.000 392.328,379.341 392.992,377.374 392.673 C 375.320 392.340,374.811 392.675,373.760 395.052 C 373.057 396.642,372.552 397.247,371.763 397.445 C 370.102 397.862,360.457 397.308,357.758 396.640 C 355.969 396.198,351.043 395.924,339.358 395.618 C 318.616 395.075,314.261 394.849,311.600 394.177 C 310.068 393.791,304.327 393.490,292.703 393.189 C 280.229 392.866,275.473 392.606,273.903 392.161 C 269.687 390.969,268.871 390.855,261.400 390.411 C 244.563 389.409,241.206 388.432,250.469 387.230 C 255.781 386.541,372.272 386.730,372.971 387.429 " stroke="none" fill="#27271d" fill-rule="evenodd"></path><path id="path2" d="M117.095 163.486 L 115.991 163.654 116.095 178.923 L 116.200 194.192 117.400 194.449 C 118.060 194.590,156.352 194.727,202.492 194.753 L 286.385 194.800 286.604 193.900 C 286.724 193.405,286.773 186.340,286.711 178.200 L 286.600 163.400 202.400 163.359 C 156.090 163.337,117.703 163.394,117.095 163.486 M138.807 170.544 C 139.573 171.062,140.648 171.628,141.197 171.801 C 143.036 172.381,145.964 175.201,146.237 176.655 C 146.511 178.116,145.377 185.727,144.731 186.762 C 141.795 191.463,130.461 191.083,129.157 186.240 C 128.918 185.354,128.391 184.206,127.985 183.690 C 126.102 181.297,126.062 176.217,127.915 174.812 C 128.512 174.359,129.498 173.541,130.107 172.994 C 130.716 172.447,131.366 172.000,131.552 172.000 C 131.738 172.000,132.569 171.460,133.400 170.800 C 135.249 169.330,136.901 169.252,138.807 170.544 M117.100 203.486 L 116.000 203.653 116.000 267.608 L 116.000 331.564 117.300 331.795 C 118.015 331.922,156.400 331.975,202.600 331.913 L 286.600 331.800 286.600 267.600 L 286.600 203.400 202.400 203.359 C 156.090 203.337,117.705 203.394,117.100 203.486 M272.558 224.384 C 275.798 225.616,276.173 228.601,273.409 231.149 L 271.618 232.800 199.635 232.800 C 152.629 232.800,127.287 232.661,126.600 232.400 C 125.675 232.048,123.910 230.335,123.132 229.033 C 122.718 228.341,124.355 224.946,125.330 224.475 C 126.482 223.918,271.098 223.829,272.558 224.384 M273.123 261.236 C 275.695 263.127,275.708 264.692,273.173 267.227 C 272.271 268.129,127.242 268.479,125.568 267.583 C 122.352 265.862,123.270 261.243,127.017 260.292 C 127.448 260.182,160.120 260.072,199.621 260.046 L 271.442 260.000 273.123 261.236 M273.535 296.384 C 275.554 298.304,275.780 300.081,274.235 301.878 L 273.269 303.000 199.614 303.103 C 150.061 303.173,125.709 303.073,125.196 302.798 C 124.776 302.573,124.068 301.566,123.623 300.559 L 122.814 298.729 123.872 297.342 C 124.453 296.579,125.300 295.695,125.754 295.377 C 126.465 294.879,136.567 294.800,199.224 294.800 L 271.870 294.800 273.535 296.384 " stroke="none" fill="#fbfbfb" fill-rule="evenodd"></path><path id="path3" d="M27.659 4.679 C 25.377 6.962,25.515 11.371,27.901 12.359 C 29.636 13.078,136.227 12.753,139.000 12.021 C 142.244 11.163,140.330 10.875,128.308 10.408 C 117.125 9.973,112.504 9.577,107.134 8.592 C 105.448 8.283,99.778 7.845,94.534 7.620 C 82.255 7.092,78.828 6.829,75.400 6.153 C 73.754 5.828,67.409 5.438,60.000 5.205 C 47.892 4.824,36.551 4.243,31.322 3.735 C 28.963 3.506,28.787 3.551,27.659 4.679 M45.800 5.615 C 55.060 5.891,63.555 6.387,69.600 7.002 C 75.240 7.576,83.054 8.050,89.134 8.188 C 98.678 8.405,99.434 8.478,102.134 9.441 C 104.753 10.376,105.764 10.488,113.874 10.740 C 132.973 11.333,121.356 11.596,76.044 11.597 L 28.758 11.597 28.156 10.157 C 27.544 8.692,27.696 6.692,28.495 5.700 C 28.989 5.087,28.278 5.091,45.800 5.615 M368.600 8.253 C 358.342 9.513,350.980 9.940,331.600 10.402 C 322.690 10.614,314.320 10.916,313.000 11.073 L 310.600 11.358 312.600 11.664 C 317.594 12.428,331.235 12.775,352.990 12.691 L 376.580 12.600 376.967 11.500 C 378.011 8.535,375.196 7.443,368.600 8.253 M376.400 10.800 C 376.400 11.591,376.158 11.599,354.900 11.527 C 340.052 11.477,335.442 11.370,340.000 11.182 C 343.630 11.033,350.920 10.862,356.200 10.803 C 361.480 10.744,367.150 10.568,368.800 10.412 C 374.932 9.834,376.400 9.909,376.400 10.800 M129.300 11.493 C 128.365 11.577,126.835 11.577,125.900 11.493 C 124.965 11.409,125.730 11.340,127.600 11.340 C 129.470 11.340,130.235 11.409,129.300 11.493 M51.114 14.800 C 18.661 14.987,16.383 15.045,15.723 15.706 C 14.677 16.752,14.594 21.268,14.647 74.200 C 14.674 99.940,14.692 149.350,14.689 184.000 C 14.674 350.310,14.804 383.769,15.467 384.277 C 15.809 384.539,17.014 384.861,18.145 384.993 C 22.986 385.557,383.452 385.021,384.141 384.449 C 385.211 383.561,384.957 16.785,383.885 15.714 C 383.203 15.032,377.971 14.998,267.285 14.959 C 203.548 14.937,136.640 14.847,118.600 14.759 C 100.560 14.672,70.191 14.690,51.114 14.800 M382.800 16.752 L 383.800 17.486 383.898 200.692 L 383.996 383.898 382.435 384.148 C 380.204 384.505,19.287 384.422,17.600 384.064 L 16.200 383.767 16.102 353.184 C 15.687 224.012,16.025 17.435,16.652 16.742 C 17.558 15.741,7.428 15.786,206.000 15.909 C 375.798 16.015,381.834 16.044,382.800 16.752 M8.124 23.300 C 7.624 24.072,7.920 35.974,8.589 42.000 C 9.595 51.060,10.344 64.711,10.618 79.000 C 10.761 86.480,11.004 93.410,11.156 94.400 L 11.434 96.200 11.723 94.157 C 12.461 88.945,12.779 76.044,12.790 50.891 L 12.802 23.581 11.775 23.191 C 10.347 22.648,8.510 22.703,8.124 23.300 M11.111 25.532 C 11.505 26.034,11.561 27.743,11.357 32.992 C 11.097 39.654,10.802 42.274,10.798 37.967 C 10.795 35.367,10.150 32.833,9.420 32.552 C 8.792 32.311,8.205 27.115,8.620 25.465 C 8.923 24.254,10.134 24.286,11.111 25.532 M388.027 27.535 C 387.465 28.892,387.698 140.369,388.270 144.000 C 388.820 147.486,389.179 145.188,389.603 135.463 C 390.348 118.402,390.512 116.131,391.258 112.600 C 391.893 109.593,392.085 106.066,392.424 91.200 C 392.647 81.410,393.103 70.430,393.438 66.800 C 394.832 51.694,395.861 29.235,395.214 28.026 C 394.208 26.147,388.756 25.774,388.027 27.535 M394.110 39.122 C 394.060 45.129,393.837 50.720,393.614 51.547 C 392.780 54.647,392.362 61.567,391.824 81.200 C 391.478 93.863,391.104 101.834,390.822 102.563 C 390.114 104.394,389.585 111.284,389.245 123.101 C 389.073 129.096,388.812 134.121,388.666 134.267 C 388.520 134.414,388.400 110.683,388.400 81.533 C 388.400 52.383,388.527 28.406,388.683 28.250 C 388.839 28.095,390.144 28.020,391.583 28.084 L 394.200 28.200 394.110 39.122 M92.498 57.015 C 89.294 58.363,89.072 61.258,91.247 73.400 C 91.444 74.500,91.719 85.623,91.859 98.117 C 92.097 119.459,92.157 120.892,92.858 121.782 C 94.388 123.728,98.817 123.329,100.068 121.134 C 100.472 120.425,100.648 116.804,100.800 106.133 C 100.989 92.863,101.166 90.402,101.790 92.369 C 102.333 94.080,106.362 93.961,107.903 92.188 C 109.192 90.704,109.177 90.541,109.294 107.133 C 109.414 124.107,109.215 123.200,112.827 123.200 C 116.619 123.200,117.659 119.098,117.542 104.600 C 117.512 100.860,117.468 94.920,117.444 91.400 C 117.381 82.284,118.310 67.040,119.040 65.218 C 119.561 63.914,119.559 63.613,119.017 62.573 C 118.680 61.928,118.404 61.089,118.402 60.709 C 118.398 59.335,114.364 58.034,112.904 58.936 C 112.191 59.376,109.564 65.096,109.323 66.732 C 109.204 67.539,108.692 68.830,108.184 69.600 C 107.677 70.370,107.061 71.765,106.815 72.700 C 106.333 74.536,106.157 74.637,104.635 73.943 C 103.858 73.589,103.535 73.012,103.193 71.368 C 102.951 70.202,102.389 68.785,101.943 68.218 C 101.497 67.651,100.965 66.582,100.760 65.841 C 100.556 65.101,99.943 63.839,99.399 63.037 C 98.855 62.235,98.301 61.089,98.168 60.490 C 97.680 58.293,97.530 57.991,96.717 57.556 C 95.038 56.657,93.745 56.491,92.498 57.015 M95.896 58.525 C 96.389 58.969,97.141 60.266,97.569 61.408 C 97.996 62.550,98.808 64.165,99.373 64.998 C 99.938 65.830,100.400 66.713,100.400 66.959 C 100.400 67.205,100.818 68.215,101.329 69.203 C 101.841 70.191,102.589 72.125,102.993 73.500 C 103.939 76.725,105.964 77.227,107.024 74.500 C 107.345 73.675,108.033 72.190,108.554 71.200 C 109.074 70.210,109.626 68.680,109.780 67.800 C 109.934 66.920,110.473 65.480,110.979 64.600 C 111.484 63.720,112.032 62.550,112.196 62.000 C 112.668 60.417,113.618 59.600,114.986 59.600 C 118.204 59.600,118.495 61.247,117.244 72.356 C 116.380 80.023,116.261 82.944,116.191 98.200 C 116.088 120.636,115.838 122.400,112.760 122.400 C 109.864 122.400,109.843 122.279,109.957 106.810 C 110.079 90.425,109.794 88.543,107.600 91.206 C 105.390 93.888,102.273 93.096,101.768 89.724 C 100.891 83.876,100.006 92.088,100.003 106.113 C 100.000 119.770,99.868 120.627,97.590 121.805 C 96.089 122.581,94.296 122.073,93.496 120.645 C 93.156 120.037,93.003 114.978,92.951 102.600 C 92.879 85.574,92.125 69.754,91.143 64.700 C 90.122 59.445,92.903 55.832,95.896 58.525 M187.180 59.460 C 185.688 59.864,184.514 62.661,184.225 66.501 C 184.072 68.535,183.684 71.100,183.362 72.200 C 182.744 74.312,182.258 78.446,181.621 87.001 C 181.408 89.862,180.959 92.984,180.622 93.939 C 178.549 99.813,178.677 121.264,180.791 122.395 C 184.026 124.126,186.392 121.732,186.398 116.722 C 186.401 113.702,187.974 103.855,188.544 103.285 C 188.973 102.856,189.229 102.895,189.984 103.507 C 191.020 104.345,191.041 104.495,191.554 114.770 C 191.933 122.337,192.349 123.200,195.628 123.200 C 199.708 123.200,201.327 118.891,199.278 113.485 C 198.461 111.332,198.399 110.480,198.392 101.285 C 198.382 89.403,197.845 80.310,197.013 77.941 C 196.677 76.983,196.214 74.490,195.984 72.400 C 195.095 64.317,193.601 60.016,191.486 59.448 C 190.517 59.189,188.161 59.195,187.180 59.460 M341.726 59.785 C 336.844 61.909,339.342 67.962,345.113 67.991 C 346.198 67.997,346.903 68.203,347.038 68.555 C 347.399 69.495,346.390 74.046,345.575 75.153 C 345.152 75.729,344.618 77.280,344.391 78.600 C 344.163 79.920,343.608 81.767,343.158 82.704 C 342.708 83.642,342.094 85.982,341.794 87.904 C 341.494 89.827,340.882 92.120,340.433 93.000 C 339.878 94.091,339.493 96.000,339.222 99.000 C 338.958 101.933,338.560 103.933,338.028 105.000 C 337.500 106.060,337.080 108.154,336.784 111.200 C 336.539 113.730,336.086 116.194,335.777 116.675 C 333.818 119.723,334.432 124.155,336.980 125.364 C 338.945 126.296,349.619 125.860,351.668 124.763 C 357.669 121.552,355.537 116.083,348.514 116.672 C 346.527 116.838,345.626 116.765,345.412 116.420 C 345.050 115.833,345.906 107.090,346.492 105.400 C 346.721 104.740,347.040 103.300,347.203 102.200 C 348.165 95.665,348.601 93.699,349.290 92.764 C 350.129 91.629,350.776 89.297,350.790 87.354 C 350.796 86.669,351.194 85.608,351.675 84.996 C 352.156 84.385,352.862 82.515,353.245 80.842 C 353.628 79.169,354.330 76.540,354.805 75.000 C 356.968 67.996,356.174 60.386,353.196 59.557 C 351.315 59.033,343.078 59.198,341.726 59.785 M191.462 60.852 C 193.047 62.167,194.360 66.852,195.372 74.800 C 195.694 77.330,196.241 80.570,196.587 82.000 C 197.045 83.895,197.327 88.452,197.626 98.800 C 197.884 107.749,198.246 114.097,198.606 115.967 C 199.489 120.564,197.570 123.313,194.395 121.998 C 192.753 121.318,192.475 119.986,192.178 111.400 C 191.882 102.836,191.639 101.760,189.914 101.381 C 187.290 100.805,186.085 104.188,185.675 113.280 C 185.327 120.996,184.923 122.146,182.698 121.746 C 179.976 121.257,179.894 120.904,180.120 110.605 C 180.256 104.417,180.536 100.351,180.973 98.200 C 181.331 96.440,181.968 91.850,182.389 88.000 C 182.809 84.150,183.505 78.660,183.935 75.800 C 184.365 72.940,184.843 68.946,184.999 66.925 C 185.436 61.228,188.475 58.373,191.462 60.852 M205.400 61.215 C 201.665 62.741,200.857 67.496,203.195 74.200 C 203.994 76.492,204.041 77.589,204.232 98.600 C 204.458 123.430,204.273 122.084,207.612 123.162 C 210.404 124.063,216.931 123.282,218.220 121.892 C 218.745 121.325,219.541 120.746,219.988 120.604 C 220.434 120.462,220.800 120.184,220.800 119.987 C 220.800 119.789,221.340 119.075,222.000 118.400 C 222.660 117.725,223.200 116.977,223.200 116.739 C 223.200 116.501,223.731 115.701,224.380 114.961 C 225.029 114.222,225.675 112.938,225.814 112.109 C 225.953 111.279,226.218 110.060,226.402 109.400 C 227.141 106.751,227.262 103.681,226.672 102.529 C 226.355 101.908,225.969 100.644,225.816 99.721 C 225.317 96.719,221.950 92.446,219.538 91.753 C 217.878 91.276,217.815 89.176,219.423 87.911 C 219.967 87.483,220.482 86.534,220.634 85.683 C 220.779 84.867,221.279 83.570,221.746 82.800 C 222.973 80.776,222.965 75.321,221.732 72.785 C 221.255 71.803,220.553 70.235,220.171 69.300 C 219.790 68.365,219.322 67.600,219.131 67.600 C 218.939 67.600,218.566 67.105,218.302 66.500 C 216.385 62.115,209.799 59.417,205.400 61.215 M353.772 61.747 C 355.571 63.444,355.834 66.746,354.529 71.271 C 354.191 72.442,353.492 75.419,352.976 77.886 C 352.459 80.354,351.754 82.804,351.408 83.332 C 351.063 83.859,350.503 85.617,350.165 87.238 C 349.827 88.859,349.220 90.729,348.816 91.393 C 348.412 92.057,347.867 93.652,347.604 94.938 C 347.342 96.224,346.858 97.921,346.528 98.710 C 346.199 99.499,345.751 101.957,345.534 104.172 C 345.316 106.388,344.794 109.996,344.374 112.190 C 343.394 117.301,343.494 117.441,348.046 117.301 C 352.343 117.169,353.582 117.819,353.594 120.211 C 353.608 123.038,351.356 124.116,343.951 124.827 C 336.409 125.551,334.463 123.825,336.354 118.087 C 336.768 116.829,337.232 114.467,337.384 112.838 C 337.536 111.209,337.999 109.018,338.412 107.970 C 338.825 106.921,339.435 103.988,339.768 101.451 C 340.101 98.914,340.635 96.213,340.955 95.447 C 341.274 94.682,341.831 92.558,342.192 90.728 C 342.553 88.897,343.279 86.050,343.805 84.400 C 344.331 82.750,344.884 80.680,345.035 79.800 C 345.185 78.920,345.634 77.552,346.031 76.761 C 346.429 75.969,347.040 74.091,347.388 72.588 C 347.737 71.085,348.227 69.608,348.478 69.306 C 349.198 68.439,347.638 67.176,345.559 66.941 C 336.839 65.957,338.798 60.400,347.864 60.400 L 352.343 60.400 353.772 61.747 M261.505 61.573 C 257.012 62.200,256.953 62.383,256.618 76.800 C 256.419 85.349,256.194 88.931,255.803 89.800 C 253.489 94.934,253.823 118.205,256.255 121.391 C 258.694 124.585,270.664 124.444,272.400 121.200 C 274.242 117.758,271.683 114.682,266.793 114.460 C 262.919 114.284,263.128 114.741,263.285 106.803 L 263.400 101.005 266.000 100.541 C 272.454 99.388,273.675 91.600,267.401 91.600 C 264.976 91.600,265.005 91.738,265.147 81.004 C 265.291 70.128,265.287 70.143,267.901 69.799 C 272.380 69.210,274.261 67.538,273.813 64.547 C 273.375 61.624,268.893 60.541,261.505 61.573 M318.235 61.623 C 314.427 62.261,314.589 61.632,314.016 78.000 C 313.780 84.754,313.481 88.458,313.055 89.916 C 311.292 95.952,311.568 118.557,313.438 121.255 C 315.626 124.412,326.546 124.653,329.300 121.605 C 332.354 118.225,329.393 114.560,323.400 114.303 L 321.000 114.200 321.000 107.400 L 321.000 100.600 323.216 100.400 C 329.441 99.838,331.114 92.396,325.181 91.663 L 323.000 91.394 323.109 81.397 C 323.246 68.812,323.024 69.738,325.956 69.526 C 330.304 69.211,332.810 65.554,330.676 62.637 C 329.727 61.338,323.142 60.801,318.235 61.623 M57.800 62.243 C 43.678 63.126,38.898 66.149,44.100 70.907 C 45.935 72.586,46.344 72.629,52.260 71.766 C 54.593 71.425,54.541 70.840,54.486 96.958 C 54.431 122.754,54.354 122.034,57.230 122.808 C 59.635 123.456,61.554 122.685,62.541 120.676 C 63.235 119.262,63.285 117.647,63.341 95.084 L 63.400 71.000 67.400 70.755 C 72.351 70.452,72.478 70.396,73.581 68.041 L 74.479 66.123 73.638 64.475 C 72.230 61.715,70.392 61.456,57.800 62.243 M126.490 61.884 C 124.525 62.261,124.258 63.427,123.913 73.157 C 123.737 78.130,123.327 84.180,123.002 86.600 C 121.293 99.331,121.326 118.747,123.059 121.112 C 124.791 123.474,128.675 124.156,135.158 123.235 C 141.883 122.280,140.984 115.249,134.079 114.800 L 131.000 114.600 130.639 111.919 C 130.425 110.328,130.425 107.485,130.639 104.919 L 131.000 100.600 133.000 100.398 C 139.427 99.748,140.663 92.517,134.492 91.673 C 131.347 91.243,131.509 91.532,132.205 87.573 C 132.568 85.513,132.799 81.659,132.799 77.674 C 132.800 70.365,133.000 69.600,134.914 69.600 C 139.695 69.598,142.801 65.201,140.000 62.400 C 139.223 61.623,129.736 61.261,126.490 61.884 M231.768 62.168 C 229.361 63.216,229.400 62.712,229.400 92.493 L 229.400 119.587 231.105 121.293 L 232.810 123.000 239.705 123.130 C 249.318 123.312,250.800 122.686,250.800 118.446 C 250.800 114.591,249.537 113.912,243.049 114.280 C 237.084 114.618,237.177 114.708,237.456 108.894 C 237.581 106.312,237.664 103.930,237.642 103.600 C 237.481 101.227,237.620 79.304,237.831 73.800 C 238.233 63.325,236.545 60.088,231.768 62.168 M79.200 62.511 C 76.829 63.696,76.742 64.387,77.014 80.000 C 77.241 93.053,77.543 97.440,78.808 106.000 C 78.986 107.210,79.148 110.720,79.167 113.800 C 79.206 120.245,79.714 121.919,81.800 122.485 C 86.029 123.632,86.597 121.676,86.234 107.206 C 86.077 100.933,85.816 88.960,85.655 80.600 C 85.452 70.062,85.215 65.133,84.883 64.531 C 83.662 62.312,81.288 61.468,79.200 62.511 M138.896 62.612 C 139.814 62.969,140.570 65.736,140.026 66.751 C 139.501 67.732,138.749 67.998,135.684 68.284 C 132.436 68.587,132.004 69.288,131.990 74.280 C 131.980 77.539,131.717 80.865,130.877 88.325 C 130.471 91.927,130.677 92.226,133.800 92.567 C 136.559 92.869,137.136 93.299,137.460 95.290 C 137.741 97.026,134.841 99.572,132.562 99.590 C 130.109 99.610,129.800 100.501,129.800 107.565 C 129.800 115.604,129.884 115.771,133.855 115.642 L 136.657 115.551 137.756 117.137 L 138.855 118.723 138.045 120.312 C 137.020 122.321,136.708 122.435,131.518 122.696 C 123.887 123.080,123.452 122.512,122.861 111.373 C 122.442 103.496,122.690 97.977,123.785 90.800 C 124.104 88.710,124.481 82.230,124.624 76.400 C 124.881 65.886,125.165 63.763,126.416 62.990 C 127.796 62.137,136.961 61.859,138.896 62.612 M154.000 62.598 C 146.651 63.490,144.457 64.666,144.339 67.775 C 144.222 70.874,147.269 73.158,150.520 72.407 C 153.121 71.807,154.267 71.923,155.391 72.900 L 156.427 73.800 156.426 92.116 C 156.425 104.757,156.277 111.149,155.947 112.746 C 154.199 121.210,160.642 127.287,163.951 120.295 C 164.937 118.211,165.621 96.517,165.196 80.800 C 164.908 70.147,164.693 70.816,168.400 70.804 C 172.963 70.789,174.832 69.877,175.570 67.304 C 176.092 65.483,174.876 63.044,173.144 62.440 C 171.456 61.852,159.324 61.952,154.000 62.598 M213.134 62.766 C 217.759 65.126,222.042 73.541,221.396 79.000 C 221.030 82.097,219.620 86.493,218.638 87.600 C 217.754 88.597,216.800 90.482,216.800 91.233 C 216.800 91.451,217.588 91.966,218.552 92.379 C 231.044 97.734,226.111 121.697,212.316 122.671 C 205.232 123.171,205.189 123.066,205.173 105.106 C 205.156 86.429,204.670 74.226,203.794 70.441 C 202.902 66.587,203.158 64.139,204.583 62.913 C 206.014 61.682,210.846 61.599,213.134 62.766 M271.995 62.995 C 274.258 65.043,272.723 67.884,269.162 68.237 C 264.082 68.740,264.135 68.608,263.818 81.706 L 263.578 91.612 264.615 92.006 C 265.185 92.223,266.326 92.400,267.150 92.400 C 269.570 92.400,271.415 95.001,270.348 96.907 C 269.758 97.961,266.534 99.600,265.051 99.600 C 262.704 99.600,262.400 100.460,262.400 107.102 C 262.400 111.246,262.563 113.216,262.991 114.240 L 263.582 115.654 266.396 115.539 C 272.777 115.279,274.010 121.687,267.744 122.546 C 264.435 122.999,259.627 122.835,258.453 122.228 C 254.937 120.409,253.986 104.910,256.562 91.400 C 256.993 89.141,257.185 85.378,257.215 78.600 C 257.280 64.280,257.649 62.996,261.890 62.347 C 265.111 61.853,271.162 62.242,271.995 62.995 M329.629 63.026 C 331.969 65.144,330.134 67.985,326.223 68.299 C 322.545 68.594,322.670 68.259,322.150 79.161 C 321.902 84.353,321.573 89.240,321.419 90.022 C 321.100 91.648,322.084 92.400,324.530 92.400 C 327.237 92.400,328.997 95.435,327.348 97.259 C 326.281 98.437,323.837 99.600,322.425 99.600 C 320.204 99.600,319.878 100.724,320.074 107.704 C 320.294 115.525,320.374 115.687,323.928 115.551 C 326.701 115.445,329.600 117.132,329.600 118.851 C 329.600 123.233,316.624 124.599,314.318 120.461 C 312.681 117.521,312.391 100.472,313.848 92.800 C 314.294 90.448,314.577 85.762,314.764 77.600 C 315.060 64.673,315.229 63.759,317.481 62.873 C 320.260 61.779,328.364 61.882,329.629 63.026 M234.425 62.813 C 236.776 64.071,236.896 65.160,236.428 80.955 C 236.193 88.916,236.000 99.604,236.000 104.705 L 236.000 113.979 237.219 114.610 C 238.180 115.107,239.489 115.215,243.407 115.120 C 249.085 114.983,249.971 115.370,250.071 118.032 C 250.207 121.650,248.524 122.400,240.268 122.400 L 234.110 122.400 232.555 121.168 C 229.839 119.016,229.963 120.241,229.979 95.691 C 229.998 67.138,230.097 65.432,231.824 63.700 C 233.267 62.253,233.334 62.230,234.425 62.813 M70.600 63.151 C 72.508 63.558,73.494 65.728,72.668 67.703 C 71.881 69.583,70.836 69.998,66.874 70.006 C 62.137 70.016,62.608 67.329,62.546 94.716 C 62.487 121.132,62.549 120.482,59.985 121.808 C 58.894 122.372,58.658 122.370,57.428 121.787 C 54.877 120.576,54.882 120.640,55.357 97.000 C 55.699 79.982,55.385 71.992,54.332 70.983 C 53.911 70.579,52.980 70.562,49.873 70.902 L 45.946 71.331 44.721 70.106 C 43.663 69.047,43.532 68.690,43.759 67.479 C 44.224 65.001,45.331 64.663,56.400 63.617 C 58.930 63.378,61.540 63.123,62.200 63.051 C 64.278 62.824,69.350 62.884,70.600 63.151 M81.991 63.195 C 84.450 64.511,84.639 67.044,85.465 109.600 C 85.671 120.220,85.381 121.489,82.798 121.295 C 80.476 121.121,79.076 118.119,79.748 114.759 C 80.067 113.167,79.329 100.503,78.620 95.400 C 77.858 89.908,77.365 66.387,77.988 65.223 C 78.818 63.671,80.905 62.614,81.991 63.195 M172.708 63.601 C 176.718 66.045,174.229 70.000,168.680 70.000 C 165.627 70.000,163.596 70.616,163.609 71.539 C 163.614 71.903,163.790 76.880,163.999 82.600 C 164.253 89.572,164.240 95.637,163.958 101.000 C 163.726 105.400,163.492 111.340,163.438 114.200 C 163.308 121.005,162.833 122.099,160.082 121.921 C 156.915 121.717,157.046 122.833,157.021 95.800 C 157.010 82.820,156.846 71.885,156.657 71.500 C 156.262 70.694,152.406 70.510,150.052 71.185 C 147.518 71.912,144.978 70.074,145.142 67.635 C 145.314 65.082,146.248 64.736,155.464 63.811 C 168.065 62.546,170.921 62.511,172.708 63.601 M212.954 74.474 C 212.524 75.170,212.715 79.330,213.237 80.656 C 213.851 82.213,214.335 81.075,214.366 78.000 C 214.401 74.640,213.792 73.119,212.954 74.474 M189.899 89.695 C 188.770 90.077,187.981 91.770,188.649 92.377 C 189.125 92.809,191.607 91.724,191.572 91.099 C 191.494 89.724,191.011 89.318,189.899 89.695 M213.091 98.256 C 212.314 99.522,212.336 113.438,213.115 114.398 L 213.926 115.396 216.713 112.491 C 220.665 108.370,220.958 105.149,217.782 100.732 C 216.939 99.559,216.216 98.547,216.174 98.483 C 215.965 98.157,213.273 97.959,213.091 98.256 M214.800 99.400 C 215.074 99.730,215.525 100.000,215.803 100.000 C 216.081 100.000,216.589 100.585,216.931 101.300 C 217.273 102.015,217.924 102.913,218.377 103.296 C 219.670 104.390,219.554 108.216,218.186 109.585 C 217.628 110.143,216.443 111.366,215.552 112.302 C 213.035 114.947,212.888 114.336,213.461 103.663 C 213.724 98.782,213.879 98.290,214.800 99.400 M113.710 157.081 C 112.641 157.288,110.411 160.441,109.950 162.400 C 109.768 163.170,109.613 202.019,109.605 248.731 C 109.589 342.542,109.406 335.511,111.915 337.738 C 112.718 338.450,115.789 338.475,201.190 338.460 L 289.634 338.444 291.046 337.572 C 291.823 337.092,292.636 336.231,292.853 335.660 C 293.309 334.462,293.376 162.127,292.921 160.936 C 292.614 160.132,290.215 157.743,289.131 157.163 C 288.467 156.807,115.545 156.726,113.710 157.081 M267.557 157.597 L 288.514 157.600 290.457 159.543 L 292.400 161.486 292.405 176.043 C 292.408 184.049,292.418 222.886,292.427 262.347 L 292.444 334.095 291.427 335.631 C 290.695 336.737,289.974 337.284,288.846 337.588 C 286.919 338.106,114.164 337.978,113.100 337.457 C 110.631 336.248,110.790 342.367,110.795 248.552 C 110.801 154.295,110.620 160.935,113.250 158.554 C 114.311 157.594,134.351 157.353,201.400 157.497 C 226.260 157.550,256.031 157.595,267.557 157.597 M117.186 162.369 C 114.661 162.864,114.800 161.912,114.800 178.735 C 114.800 196.004,114.693 195.317,117.610 196.805 C 119.907 197.977,286.391 198.070,286.413 196.900 C 286.420 196.515,286.690 195.851,287.013 195.424 C 288.011 194.104,287.876 163.574,286.869 162.662 C 286.101 161.967,120.693 161.682,117.186 162.369 M286.711 178.400 C 286.773 186.650,286.724 193.807,286.603 194.304 L 286.383 195.207 201.653 195.104 C 130.537 195.017,116.817 194.912,116.261 194.451 C 115.489 193.810,115.241 166.195,115.990 164.225 L 116.381 163.198 201.490 163.299 L 286.600 163.400 286.711 178.400 M134.606 170.622 C 133.813 171.160,133.034 171.600,132.875 171.600 C 132.568 171.600,129.246 174.146,127.648 175.606 C 126.468 176.685,126.589 180.843,127.854 182.687 C 128.264 183.284,128.960 184.768,129.400 185.983 C 130.451 188.886,131.495 189.430,135.800 189.314 C 143.647 189.104,145.172 187.562,145.862 179.138 C 146.136 175.792,146.341 176.232,143.178 173.384 C 142.835 173.076,141.665 172.436,140.578 171.963 C 139.490 171.489,138.330 170.881,138.000 170.612 C 136.816 169.645,136.043 169.647,134.606 170.622 M143.545 175.134 C 145.626 176.865,144.863 184.241,142.318 187.000 C 140.066 189.442,130.000 187.979,130.000 185.211 C 130.000 184.756,129.460 183.373,128.800 182.136 C 126.490 177.808,127.131 176.612,134.158 172.141 L 136.136 170.882 139.168 172.448 C 140.836 173.310,142.805 174.518,143.545 175.134 M117.186 202.369 C 116.409 202.521,115.554 202.781,115.286 202.947 C 114.333 203.536,114.608 331.674,115.565 332.856 L 116.329 333.800 201.453 333.800 L 286.576 333.800 287.082 332.800 C 288.022 330.942,287.813 203.517,286.869 202.662 C 286.101 201.967,120.693 201.682,117.186 202.369 M286.600 267.800 L 286.600 332.200 201.729 332.301 C 124.969 332.392,116.799 332.342,116.229 331.772 C 115.479 331.022,115.245 206.186,115.990 204.225 L 116.381 203.198 201.490 203.299 L 286.600 203.400 286.600 267.800 M125.059 225.300 C 123.624 226.610,123.358 228.784,124.461 230.186 C 126.308 232.535,121.743 232.400,199.573 232.400 L 271.172 232.400 272.686 231.101 C 273.519 230.386,274.342 229.621,274.515 229.401 C 275.110 228.642,274.446 226.216,273.391 225.300 L 272.355 224.400 199.200 224.400 L 126.045 224.400 125.059 225.300 M272.030 225.713 C 273.443 226.806,273.627 228.624,272.440 229.762 L 271.349 230.806 198.886 230.703 L 126.422 230.600 125.584 229.762 C 124.497 228.675,124.959 226.449,126.425 225.706 C 127.839 224.989,271.104 224.996,272.030 225.713 M11.066 261.400 C 10.935 262.280,10.723 266.330,10.597 270.400 C 10.307 279.744,9.698 287.510,9.012 290.600 C 8.293 293.842,8.046 296.915,7.595 308.200 C 7.370 313.808,6.871 320.045,6.394 323.200 C 5.777 327.280,5.484 332.120,5.195 343.000 C 4.984 350.920,4.625 359.650,4.397 362.400 C 3.610 371.871,3.568 371.102,4.937 372.253 C 6.514 373.581,11.271 373.539,12.258 372.189 C 12.852 371.376,12.841 270.659,12.246 264.327 C 11.887 260.517,11.385 259.271,11.066 261.400 M127.413 260.849 C 123.552 261.760,122.763 266.502,126.307 267.494 C 128.973 268.240,271.865 267.846,272.700 267.090 C 275.324 264.716,275.168 262.887,272.201 261.259 C 270.809 260.495,130.595 260.099,127.413 260.849 M272.406 262.725 C 273.421 263.547,273.291 264.522,271.980 265.929 L 271.169 266.800 200.034 266.800 C 123.394 266.800,126.684 266.878,125.552 265.042 L 124.787 263.800 125.816 262.900 L 126.845 262.000 199.178 262.000 C 268.415 262.000,271.550 262.031,272.406 262.725 M388.245 293.800 C 387.748 300.346,387.505 376.275,387.978 377.159 C 388.558 378.243,390.798 378.308,391.738 377.269 C 392.820 376.072,392.407 348.273,391.214 342.049 C 390.616 338.931,390.038 326.890,389.606 308.572 C 389.228 292.548,388.741 287.265,388.245 293.800 M126.567 295.588 C 123.350 296.889,122.892 301.850,125.912 302.695 C 126.510 302.863,159.612 303.000,199.471 303.000 L 271.941 303.000 273.071 302.162 C 275.183 300.593,275.267 298.592,273.297 296.754 L 271.631 295.200 199.515 295.225 C 159.852 295.239,127.025 295.402,126.567 295.588 M271.915 297.200 C 273.105 297.981,273.406 299.261,272.731 300.671 L 272.189 301.800 199.795 301.909 C 159.978 301.970,127.009 301.925,126.531 301.810 C 124.061 301.215,124.665 297.618,127.367 296.827 C 129.723 296.138,270.850 296.502,271.915 297.200 M11.515 339.307 C 11.522 375.485,11.888 372.000,8.075 372.000 C 5.009 372.000,4.963 371.861,5.529 364.267 C 5.795 360.710,6.012 356.180,6.012 354.200 C 6.013 349.448,7.368 327.506,7.852 324.414 C 7.971 323.651,8.210 318.105,8.382 312.088 C 8.678 301.761,8.740 301.117,9.502 300.584 C 9.946 300.273,10.455 299.519,10.635 298.909 C 11.277 296.724,11.509 307.375,11.515 339.307 M388.756 316.200 C 388.610 317.398,388.517 316.116,388.523 313.000 C 388.531 308.561,388.567 308.268,388.766 311.000 C 388.895 312.760,388.890 315.100,388.756 316.200 M389.353 331.600 C 389.565 340.965,390.138 351.664,391.012 362.600 C 391.999 374.941,391.803 376.781,389.500 376.794 L 388.400 376.800 388.412 347.900 C 388.424 318.638,388.880 310.742,389.353 331.600 M10.404 378.195 C 9.816 378.903,10.759 379.455,11.845 379.038 C 12.494 378.789,11.960 377.600,11.200 377.600 C 11.034 377.600,10.676 377.868,10.404 378.195 M24.151 388.393 C 22.012 389.257,22.546 392.193,24.911 392.572 C 29.820 393.359,67.678 392.102,72.000 391.008 C 74.481 390.381,84.390 389.716,96.000 389.399 C 100.290 389.282,105.150 389.057,106.800 388.899 L 109.800 388.611 105.800 388.353 C 99.762 387.962,25.127 387.999,24.151 388.393 M259.000 388.378 L 256.600 388.623 258.800 388.916 C 260.010 389.076,264.150 389.386,268.000 389.603 C 272.699 389.869,276.512 390.330,279.600 391.007 C 283.652 391.895,285.724 392.063,297.000 392.411 C 317.172 393.036,327.709 393.528,334.400 394.159 C 337.810 394.481,345.370 394.937,351.200 395.172 C 357.030 395.407,363.931 395.818,366.535 396.084 L 371.270 396.568 372.003 395.597 C 373.146 394.080,373.368 391.544,372.516 389.734 L 371.794 388.200 316.597 388.167 C 286.239 388.148,260.320 388.243,259.000 388.378 M378.312 390.018 C 378.214 390.687,378.283 391.328,378.467 391.441 C 378.650 391.555,378.800 391.007,378.800 390.224 C 378.800 388.479,378.553 388.375,378.312 390.018 M371.500 390.316 C 372.068 391.039,372.159 393.530,371.648 394.337 C 371.241 394.979,369.843 394.983,354.042 394.390 C 347.749 394.153,341.070 393.707,339.200 393.398 C 334.025 392.541,325.241 392.064,309.600 391.791 C 293.190 391.504,290.713 391.248,296.200 390.405 C 303.800 389.237,370.591 389.159,371.500 390.316 M45.000 390.493 C 49.638 390.937,49.984 391.020,48.200 391.260 C 45.104 391.678,23.600 391.654,23.600 391.233 C 23.600 389.979,35.366 389.572,45.000 390.493 " stroke="none" fill="#92917b" fill-rule="evenodd"></path><path id="path4" d="M28.000 2.275 C 26.777 2.706,25.261 4.855,25.008 6.517 C 24.495 9.878,24.134 10.366,22.525 9.872 C 20.666 9.302,19.837 10.246,20.217 12.500 L 20.470 14.000 18.454 14.000 C 14.839 14.000,12.310 16.895,13.203 20.010 C 13.635 21.516,12.874 22.000,10.075 22.000 C 7.017 22.000,6.982 22.106,7.112 30.764 C 7.301 43.372,7.960 56.844,8.551 60.200 C 8.867 61.993,9.225 67.798,9.366 73.400 C 10.051 100.685,10.319 106.009,11.198 109.800 C 13.200 118.434,13.641 132.514,13.639 187.800 C 13.637 238.734,13.416 245.360,11.562 250.087 C 10.573 252.609,10.125 256.975,9.581 269.400 C 9.273 276.453,8.889 280.894,8.391 283.200 C 7.873 285.592,7.530 289.801,7.232 297.400 C 6.703 310.878,6.403 315.286,5.978 315.814 C 5.259 316.707,4.776 321.812,4.560 330.800 C 4.264 343.079,3.781 350.924,3.036 355.531 C 2.326 359.918,1.771 369.833,2.151 371.346 C 2.446 372.521,4.521 373.995,7.000 374.791 C 9.504 375.595,9.724 375.903,8.758 377.259 C 7.417 379.142,8.004 379.661,12.540 380.600 C 13.586 380.816,13.669 380.961,13.537 382.346 C 13.366 384.133,14.066 385.045,16.042 385.612 C 18.123 386.209,382.991 386.138,384.126 385.540 C 384.607 385.287,385.132 384.882,385.294 384.640 C 386.083 383.459,385.631 16.126,384.839 15.149 C 384.179 14.333,383.658 14.190,380.888 14.065 L 377.699 13.920 377.905 11.353 C 378.258 6.950,378.505 7.039,366.899 7.364 C 361.563 7.513,355.758 7.807,353.999 8.018 C 352.239 8.228,349.327 8.576,347.527 8.791 C 345.727 9.006,335.962 9.369,325.827 9.598 C 306.052 10.044,300.799 10.399,296.724 11.565 C 294.099 12.315,288.600 12.863,276.200 13.608 C 269.663 14.002,165.871 14.200,164.729 13.822 C 164.438 13.725,161.698 13.449,158.640 13.208 C 155.022 12.922,152.298 12.485,150.840 11.956 C 146.660 10.440,143.465 10.054,131.388 9.609 C 124.795 9.365,118.590 9.004,117.600 8.806 C 116.610 8.608,114.914 8.255,113.830 8.022 C 112.747 7.789,107.257 7.421,101.630 7.205 C 87.883 6.676,84.046 6.378,82.472 5.721 C 80.777 5.013,73.185 4.525,58.827 4.202 C 50.365 4.012,47.038 3.796,45.827 3.359 C 43.246 2.427,29.874 1.614,28.000 2.275 M40.600 4.392 C 44.340 4.621,53.070 4.987,60.000 5.205 C 67.409 5.438,73.754 5.828,75.400 6.153 C 78.828 6.829,82.255 7.092,94.534 7.620 C 99.778 7.845,105.448 8.283,107.134 8.592 C 112.504 9.577,117.125 9.973,128.308 10.408 C 140.330 10.875,142.244 11.163,139.000 12.021 C 136.227 12.753,29.636 13.078,27.901 12.359 C 23.537 10.551,26.430 3.259,31.322 3.735 C 32.685 3.867,36.860 4.163,40.600 4.392 M376.969 9.300 C 377.217 10.007,377.216 10.793,376.967 11.500 L 376.580 12.600 352.990 12.691 C 331.235 12.775,317.594 12.428,312.600 11.664 L 310.600 11.358 313.000 11.073 C 314.320 10.916,322.690 10.614,331.600 10.402 C 350.980 9.940,358.342 9.513,368.600 8.253 C 372.929 7.721,376.575 8.177,376.969 9.300 M267.285 14.959 C 377.971 14.998,383.203 15.032,383.885 15.714 C 384.957 16.785,385.211 383.561,384.141 384.449 C 383.452 385.021,22.986 385.557,18.145 384.993 C 17.014 384.861,15.809 384.539,15.467 384.277 C 14.804 383.769,14.674 350.310,14.689 184.000 C 14.692 149.350,14.674 99.940,14.647 74.200 C 14.594 21.268,14.677 16.752,15.723 15.706 C 16.559 14.869,59.601 14.473,118.600 14.759 C 136.640 14.847,203.548 14.937,267.285 14.959 M388.003 20.597 C 386.394 22.536,386.406 147.167,388.016 152.900 C 389.056 156.602,389.557 154.479,390.023 144.400 C 390.813 127.310,391.157 122.165,391.584 121.042 C 392.584 118.414,392.894 113.404,393.419 91.400 C 393.551 85.874,393.881 80.612,394.198 79.000 C 394.699 76.448,395.194 65.859,395.817 44.353 C 395.957 39.530,396.265 35.677,396.617 34.353 C 398.012 29.114,396.873 26.343,392.692 24.804 C 391.118 24.225,390.992 24.067,390.880 22.546 C 390.784 21.252,390.551 20.815,389.761 20.455 C 388.518 19.889,388.596 19.882,388.003 20.597 M11.775 23.191 L 12.802 23.581 12.790 50.891 C 12.779 76.044,12.461 88.945,11.723 94.157 L 11.434 96.200 11.156 94.400 C 11.004 93.410,10.761 86.480,10.618 79.000 C 10.344 64.711,9.595 51.060,8.589 42.000 C 7.920 35.974,7.624 24.072,8.124 23.300 C 8.510 22.703,10.347 22.648,11.775 23.191 M393.295 26.820 C 394.118 27.048,394.981 27.591,395.214 28.026 C 395.861 29.235,394.832 51.694,393.438 66.800 C 393.103 70.430,392.647 81.410,392.424 91.200 C 392.085 106.066,391.893 109.593,391.258 112.600 C 390.512 116.131,390.348 118.402,389.603 135.463 C 389.179 145.188,388.820 147.486,388.270 144.000 C 387.698 140.369,387.465 28.892,388.027 27.535 C 388.556 26.259,390.382 26.011,393.295 26.820 M92.682 58.007 C 91.222 59.156,90.595 61.881,91.143 64.700 C 92.125 69.754,92.879 85.574,92.951 102.600 C 93.003 114.978,93.156 120.037,93.496 120.645 C 94.296 122.073,96.089 122.581,97.590 121.805 C 99.868 120.627,100.000 119.770,100.003 106.113 C 100.006 92.088,100.891 83.876,101.768 89.724 C 102.273 93.096,105.390 93.888,107.600 91.206 C 109.794 88.543,110.079 90.425,109.957 106.810 C 109.843 122.279,109.864 122.400,112.760 122.400 C 115.838 122.400,116.088 120.636,116.191 98.200 C 116.261 82.944,116.380 80.023,117.244 72.356 C 118.495 61.247,118.204 59.600,114.986 59.600 C 113.618 59.600,112.668 60.417,112.196 62.000 C 112.032 62.550,111.484 63.720,110.979 64.600 C 110.473 65.480,109.934 66.920,109.780 67.800 C 109.626 68.680,109.074 70.210,108.554 71.200 C 108.033 72.190,107.345 73.675,107.024 74.500 C 105.964 77.227,103.939 76.725,102.993 73.500 C 102.589 72.125,101.841 70.191,101.329 69.203 C 100.818 68.215,100.400 67.205,100.400 66.959 C 100.400 66.713,99.938 65.830,99.373 64.998 C 98.808 64.165,97.996 62.550,97.569 61.408 C 96.327 58.091,94.337 56.705,92.682 58.007 M95.176 59.300 C 95.844 60.015,96.656 61.375,96.979 62.323 C 97.302 63.270,98.024 64.589,98.583 65.253 C 99.143 65.918,99.600 66.777,99.600 67.163 C 99.600 67.549,100.038 68.729,100.573 69.787 C 101.108 70.844,101.763 72.629,102.027 73.754 C 103.271 79.049,106.593 79.512,107.955 74.579 C 108.161 73.833,108.684 72.723,109.118 72.111 C 109.551 71.500,110.126 69.920,110.395 68.600 C 110.663 67.280,111.179 65.869,111.542 65.465 C 111.904 65.061,112.483 63.899,112.828 62.883 C 113.583 60.666,115.672 59.691,116.722 61.067 C 117.348 61.889,117.152 68.850,116.390 72.835 C 115.232 78.888,115.092 81.609,115.002 99.800 C 114.903 119.985,114.790 121.323,113.173 121.517 C 110.571 121.829,110.600 122.004,110.600 105.732 C 110.600 88.188,110.117 85.822,107.383 89.955 C 105.514 92.778,103.110 92.544,102.638 89.492 C 102.034 85.586,101.414 84.643,100.229 85.829 C 99.533 86.524,99.530 86.591,99.405 103.800 C 99.287 120.024,99.435 118.586,97.712 120.259 L 96.225 121.703 94.920 120.193 C 93.867 118.976,93.671 118.481,93.907 117.642 C 94.068 117.069,94.190 110.570,94.178 103.200 C 94.157 90.584,94.008 87.562,92.380 66.778 C 91.991 61.810,92.204 59.911,93.307 58.500 C 93.828 57.833,93.787 57.815,95.176 59.300 M186.707 61.583 C 185.368 63.148,185.264 63.472,184.999 66.925 C 184.843 68.946,184.365 72.940,183.935 75.800 C 183.505 78.660,182.809 84.150,182.389 88.000 C 181.968 91.850,181.331 96.440,180.973 98.200 C 180.536 100.351,180.256 104.417,180.120 110.605 C 179.894 120.904,179.976 121.257,182.698 121.746 C 184.923 122.146,185.327 120.996,185.675 113.280 C 186.085 104.188,187.290 100.805,189.914 101.381 C 191.639 101.760,191.882 102.836,192.178 111.400 C 192.475 119.986,192.753 121.318,194.395 121.998 C 197.570 123.313,199.489 120.564,198.606 115.967 C 198.246 114.097,197.884 107.749,197.626 98.800 C 197.327 88.452,197.045 83.895,196.587 82.000 C 196.241 80.570,195.694 77.330,195.372 74.800 C 193.673 61.454,190.700 56.919,186.707 61.583 M341.921 61.395 C 338.563 63.677,340.316 66.350,345.559 66.941 C 347.638 67.176,349.198 68.439,348.478 69.306 C 348.227 69.608,347.737 71.085,347.388 72.588 C 347.040 74.091,346.429 75.969,346.031 76.761 C 345.634 77.552,345.185 78.920,345.035 79.800 C 344.884 80.680,344.331 82.750,343.805 84.400 C 343.279 86.050,342.553 88.897,342.192 90.728 C 341.831 92.558,341.274 94.682,340.955 95.447 C 340.635 96.213,340.101 98.914,339.768 101.451 C 339.435 103.988,338.825 106.921,338.412 107.970 C 337.999 109.018,337.536 111.209,337.384 112.838 C 337.232 114.467,336.768 116.829,336.354 118.087 C 334.463 123.825,336.409 125.551,343.951 124.827 C 351.356 124.116,353.608 123.038,353.594 120.211 C 353.582 117.819,352.343 117.169,348.046 117.301 C 343.494 117.441,343.394 117.301,344.374 112.190 C 344.794 109.996,345.316 106.388,345.534 104.172 C 345.751 101.957,346.199 99.499,346.528 98.710 C 346.858 97.921,347.342 96.224,347.604 94.938 C 347.867 93.652,348.412 92.057,348.816 91.393 C 349.220 90.729,349.827 88.859,350.165 87.238 C 350.503 85.617,351.063 83.859,351.408 83.332 C 351.754 82.804,352.459 80.354,352.976 77.886 C 353.492 75.419,354.191 72.442,354.529 71.271 C 355.834 66.746,355.571 63.444,353.772 61.747 L 352.343 60.400 347.864 60.400 C 343.752 60.400,343.266 60.481,341.921 61.395 M191.257 62.389 C 192.001 63.183,192.395 64.149,192.590 65.658 C 192.743 66.836,193.193 68.882,193.591 70.204 C 193.989 71.526,194.527 74.676,194.786 77.204 C 195.046 79.732,195.531 82.970,195.864 84.400 C 196.284 86.203,196.627 91.677,196.983 102.254 C 197.265 110.644,197.605 117.684,197.737 117.899 C 198.083 118.459,196.773 121.600,196.193 121.600 C 193.759 121.600,193.301 119.940,192.854 109.511 C 192.485 100.901,192.406 100.635,190.107 100.262 C 186.401 99.661,185.201 102.234,184.936 111.348 C 184.700 119.485,184.458 120.400,182.543 120.400 C 180.342 120.400,180.191 119.607,180.725 110.893 C 180.978 106.772,181.367 102.680,181.590 101.800 C 181.813 100.920,182.450 96.330,183.007 91.600 C 183.563 86.870,184.266 81.470,184.569 79.600 C 184.872 77.730,185.342 73.415,185.613 70.010 C 186.292 61.466,188.100 59.024,191.257 62.389 M352.629 62.238 L 354.400 63.276 354.400 66.023 C 354.400 67.830,354.125 69.467,353.597 70.807 C 353.156 71.928,352.523 74.589,352.192 76.722 C 351.860 78.855,351.229 81.344,350.790 82.254 C 350.350 83.164,349.797 84.964,349.560 86.254 C 349.324 87.544,348.800 89.140,348.396 89.800 C 347.992 90.460,347.379 92.222,347.033 93.716 C 346.687 95.210,346.141 96.941,345.819 97.564 C 345.496 98.187,344.953 101.105,344.612 104.048 C 344.270 106.992,343.805 109.967,343.578 110.660 C 342.664 113.445,342.461 116.153,343.076 117.345 L 343.667 118.490 347.446 118.207 C 351.751 117.884,352.400 118.145,352.400 120.200 C 352.400 122.400,349.734 123.318,341.800 123.850 L 338.600 124.065 337.508 122.663 C 336.468 121.330,336.443 121.195,336.987 119.894 C 337.301 119.141,337.734 116.804,337.950 114.700 C 338.165 112.596,338.636 110.305,338.995 109.609 C 339.355 108.913,339.916 106.241,340.240 103.672 C 340.565 101.102,341.164 98.190,341.572 97.200 C 341.980 96.210,342.535 94.063,342.805 92.428 C 343.075 90.794,343.725 88.196,344.249 86.655 C 344.773 85.114,345.405 82.687,345.654 81.261 C 345.902 79.834,346.416 78.112,346.796 77.434 C 347.175 76.755,347.714 75.123,347.993 73.806 C 348.272 72.489,348.823 70.809,349.217 70.072 C 350.629 67.438,349.075 65.600,345.435 65.600 C 343.862 65.600,341.470 64.761,341.034 64.056 C 340.466 63.137,342.892 61.872,345.800 61.571 C 350.214 61.113,350.809 61.171,352.629 62.238 M129.157 62.367 C 124.973 62.955,124.951 63.021,124.624 76.400 C 124.481 82.230,124.104 88.710,123.785 90.800 C 122.690 97.977,122.442 103.496,122.861 111.373 C 123.452 122.512,123.887 123.080,131.518 122.696 C 136.708 122.435,137.020 122.321,138.045 120.312 L 138.855 118.723 137.756 117.137 L 136.657 115.551 133.855 115.642 C 129.884 115.771,129.800 115.604,129.800 107.565 C 129.800 100.501,130.109 99.610,132.562 99.590 C 134.841 99.572,137.741 97.026,137.460 95.290 C 137.136 93.299,136.559 92.869,133.800 92.567 C 130.677 92.226,130.471 91.927,130.877 88.325 C 131.717 80.865,131.980 77.539,131.990 74.280 C 132.004 69.288,132.436 68.587,135.684 68.284 C 139.937 67.887,140.745 67.168,140.011 64.439 C 139.434 62.297,135.290 61.506,129.157 62.367 M204.583 62.913 C 203.158 64.139,202.902 66.587,203.794 70.441 C 204.670 74.226,205.156 86.429,205.173 105.106 C 205.189 123.066,205.232 123.171,212.316 122.671 C 217.306 122.319,219.760 120.476,223.802 114.048 C 228.067 107.266,225.145 95.206,218.552 92.379 C 217.588 91.966,216.800 91.451,216.800 91.233 C 216.800 90.482,217.754 88.597,218.638 87.600 C 219.620 86.493,221.030 82.097,221.396 79.000 C 222.042 73.541,217.759 65.126,213.134 62.766 C 210.846 61.599,206.014 61.682,204.583 62.913 M261.890 62.347 C 257.649 62.996,257.280 64.280,257.215 78.600 C 257.185 85.378,256.993 89.141,256.562 91.400 C 254.627 101.549,254.695 115.360,256.703 120.128 C 257.770 122.660,261.287 123.431,267.744 122.546 C 274.010 121.687,272.777 115.279,266.396 115.539 L 263.582 115.654 262.991 114.240 C 262.563 113.216,262.400 111.246,262.400 107.102 C 262.400 100.460,262.704 99.600,265.051 99.600 C 266.534 99.600,269.758 97.961,270.348 96.907 C 271.415 95.001,269.570 92.400,267.150 92.400 C 266.326 92.400,265.185 92.223,264.615 92.006 L 263.578 91.612 263.818 81.706 C 264.135 68.608,264.082 68.740,269.162 68.237 C 272.723 67.884,274.258 65.043,271.995 62.995 C 271.162 62.242,265.111 61.853,261.890 62.347 M319.800 62.250 C 315.190 62.951,315.093 63.246,314.764 77.600 C 314.577 85.762,314.294 90.448,313.848 92.800 C 312.391 100.472,312.681 117.521,314.318 120.461 C 315.578 122.721,320.677 123.589,325.800 122.414 C 331.476 121.112,329.898 115.324,323.928 115.551 C 320.374 115.687,320.294 115.525,320.074 107.704 C 319.878 100.724,320.204 99.600,322.425 99.600 C 323.837 99.600,326.281 98.437,327.348 97.259 C 328.997 95.435,327.237 92.400,324.530 92.400 C 322.084 92.400,321.100 91.648,321.419 90.022 C 321.573 89.240,321.902 84.353,322.150 79.161 C 322.670 68.259,322.545 68.594,326.223 68.299 C 330.134 67.985,331.969 65.144,329.629 63.026 C 328.840 62.313,322.617 61.821,319.800 62.250 M231.824 63.700 C 230.097 65.432,229.998 67.138,229.979 95.691 C 229.963 120.241,229.839 119.016,232.555 121.168 L 234.110 122.400 240.268 122.400 C 248.524 122.400,250.207 121.650,250.071 118.032 C 249.971 115.370,249.085 114.983,243.407 115.120 C 239.489 115.215,238.180 115.107,237.219 114.610 L 236.000 113.979 236.000 104.705 C 236.000 99.604,236.193 88.916,236.428 80.955 C 236.896 65.160,236.776 64.071,234.425 62.813 C 233.334 62.230,233.267 62.253,231.824 63.700 M62.200 63.051 C 61.540 63.123,58.930 63.378,56.400 63.617 C 45.331 64.663,44.224 65.001,43.759 67.479 C 43.532 68.690,43.663 69.047,44.721 70.106 L 45.946 71.331 49.873 70.902 C 52.980 70.562,53.911 70.579,54.332 70.983 C 55.385 71.992,55.699 79.982,55.357 97.000 C 54.882 120.640,54.877 120.576,57.428 121.787 C 58.658 122.370,58.894 122.372,59.985 121.808 C 62.549 120.482,62.487 121.132,62.546 94.716 C 62.608 67.329,62.137 70.016,66.874 70.006 C 70.836 69.998,71.881 69.583,72.668 67.703 C 74.289 63.830,70.493 62.143,62.200 63.051 M79.726 63.580 C 79.025 64.007,78.243 64.747,77.988 65.223 C 77.365 66.387,77.858 89.908,78.620 95.400 C 79.329 100.503,80.067 113.167,79.748 114.759 C 79.076 118.119,80.476 121.121,82.798 121.295 C 85.381 121.489,85.671 120.220,85.465 109.600 C 84.639 67.044,84.450 64.511,81.991 63.195 C 81.059 62.696,81.220 62.669,79.726 63.580 M163.000 63.075 C 151.078 64.120,146.392 64.846,145.630 65.764 C 143.591 68.221,146.775 72.125,150.052 71.185 C 152.406 70.510,156.262 70.694,156.657 71.500 C 156.846 71.885,157.010 82.820,157.021 95.800 C 157.046 122.833,156.915 121.717,160.082 121.921 C 162.833 122.099,163.308 121.005,163.438 114.200 C 163.492 111.340,163.726 105.400,163.958 101.000 C 164.240 95.637,164.253 89.572,163.999 82.600 C 163.790 76.880,163.614 71.903,163.609 71.539 C 163.596 70.616,165.627 70.000,168.680 70.000 C 174.229 70.000,176.718 66.045,172.708 63.601 C 171.410 62.809,168.083 62.629,163.000 63.075 M212.126 63.265 C 213.613 64.055,216.769 66.871,217.006 67.619 C 217.130 68.010,217.746 68.977,218.375 69.769 C 220.726 72.727,220.728 86.400,218.377 86.400 C 218.179 86.400,217.632 87.165,217.162 88.100 C 216.691 89.035,216.040 90.104,215.714 90.475 C 214.931 91.367,215.340 91.930,217.448 92.862 C 219.913 93.953,221.725 95.793,223.268 98.774 C 225.005 102.132,225.290 110.023,223.752 112.200 C 223.286 112.860,222.514 114.120,222.036 115.000 C 220.567 117.707,219.204 119.370,217.874 120.078 C 215.360 121.417,214.657 121.622,211.756 121.867 L 208.814 122.116 207.460 120.638 L 206.106 119.160 205.863 96.680 C 205.729 84.316,205.435 73.120,205.209 71.800 C 204.494 67.626,204.589 63.943,205.428 63.330 C 206.330 62.671,210.925 62.626,212.126 63.265 M139.302 64.759 C 139.789 66.640,139.175 67.107,135.800 67.427 C 132.376 67.752,131.343 68.352,130.855 70.299 C 130.560 71.479,129.937 84.823,129.894 90.905 C 129.881 92.715,131.016 93.599,133.362 93.606 C 135.844 93.614,136.317 93.884,136.636 95.482 C 136.895 96.777,134.495 98.400,132.323 98.400 C 131.098 98.400,130.061 99.122,129.373 100.451 C 128.202 102.717,128.731 114.207,130.086 115.942 C 130.946 117.043,131.198 117.108,133.801 116.899 C 138.544 116.518,139.069 121.168,134.346 121.735 C 131.284 122.103,127.809 122.060,126.705 121.640 C 123.857 120.557,122.764 107.987,124.440 95.600 C 125.048 91.104,125.350 86.092,125.539 77.361 C 125.867 62.243,125.312 63.188,133.775 63.320 L 138.950 63.400 139.302 64.759 M271.586 63.974 C 272.751 66.151,271.852 67.115,268.359 67.433 C 262.828 67.936,262.959 67.612,262.663 81.486 C 262.407 93.486,262.278 93.080,266.493 93.467 C 271.917 93.965,269.461 98.800,263.783 98.800 C 261.970 98.800,261.531 100.669,261.668 107.794 C 261.838 116.571,262.042 116.990,266.006 116.707 C 268.492 116.529,268.738 116.589,269.952 117.673 L 271.246 118.830 270.170 120.115 C 268.957 121.563,267.611 121.942,263.550 121.977 C 258.553 122.020,257.222 121.040,257.186 117.286 C 257.178 116.469,256.911 114.720,256.592 113.400 C 255.728 109.820,255.841 102.570,256.849 96.940 C 257.548 93.033,257.742 89.902,257.949 79.122 L 258.200 66.044 259.578 64.622 L 260.957 63.200 266.064 63.200 C 270.705 63.200,271.210 63.271,271.586 63.974 M329.120 63.680 C 329.682 64.242,329.766 66.650,329.235 66.979 C 329.034 67.103,327.508 67.319,325.844 67.460 C 321.403 67.835,321.504 67.628,321.126 77.120 C 320.953 81.454,320.656 86.350,320.466 88.000 C 319.956 92.437,320.913 93.591,325.110 93.598 C 326.525 93.600,327.452 94.976,326.999 96.403 C 326.760 97.156,323.938 98.400,322.468 98.400 C 320.798 98.400,319.705 100.017,319.391 102.951 C 319.021 106.397,319.523 113.816,320.243 115.554 L 320.804 116.907 323.580 116.709 C 326.208 116.521,326.412 116.569,327.410 117.611 L 328.465 118.712 327.549 120.110 C 325.781 122.807,316.541 122.869,315.422 120.191 C 313.933 116.628,313.733 102.742,315.021 92.400 C 315.358 89.690,315.607 83.938,315.626 78.400 C 315.665 67.392,315.821 66.088,317.303 64.433 L 318.406 63.200 323.523 63.200 C 326.970 63.200,328.797 63.357,329.120 63.680 M234.987 65.285 C 235.559 66.714,235.624 67.883,235.417 72.985 C 234.837 87.235,234.835 113.308,235.414 114.427 C 236.150 115.851,237.171 116.057,242.970 115.948 C 248.227 115.849,248.650 115.953,249.235 117.492 C 250.387 120.522,247.588 121.722,239.802 121.537 L 234.012 121.400 232.528 119.916 C 230.296 117.682,229.826 106.160,230.804 77.678 L 231.193 66.356 232.244 64.978 C 233.617 63.178,234.169 63.240,234.987 65.285 M71.613 65.218 C 73.362 67.536,71.305 69.196,66.674 69.206 C 65.093 69.209,63.350 69.440,62.800 69.718 L 61.800 70.225 61.758 88.012 C 61.735 97.796,61.609 108.758,61.477 112.374 L 61.238 118.949 59.919 120.254 L 58.600 121.559 57.227 120.320 L 55.853 119.080 55.916 112.240 C 55.950 108.478,56.182 103.502,56.432 101.182 C 56.946 96.403,56.710 79.793,56.051 74.400 C 55.492 69.818,55.202 69.592,50.271 69.887 C 45.665 70.161,44.590 69.752,44.966 67.868 C 45.378 65.809,45.846 65.620,51.639 65.183 C 54.609 64.960,58.471 64.615,60.220 64.417 C 65.852 63.780,70.791 64.127,71.613 65.218 M82.134 64.956 C 83.015 66.300,83.189 68.257,83.597 81.400 C 83.795 87.780,84.178 98.620,84.448 105.489 C 85.004 119.632,84.958 120.000,82.623 120.000 C 80.575 120.000,80.402 119.348,80.383 111.526 C 80.373 107.717,80.185 102.170,79.964 99.200 C 79.511 93.120,78.880 80.788,78.561 71.800 L 78.348 65.800 79.674 64.925 C 81.359 63.813,81.386 63.813,82.134 64.956 M172.492 65.114 L 173.895 66.229 172.647 67.671 C 171.412 69.100,171.364 69.115,167.659 69.309 C 162.075 69.600,162.397 68.811,162.729 81.400 C 162.880 87.120,162.823 98.010,162.601 105.600 C 162.171 120.364,161.998 121.508,160.266 121.043 C 159.790 120.915,159.183 120.808,158.918 120.805 C 157.989 120.795,157.857 117.616,157.829 94.562 C 157.795 67.175,158.396 69.904,152.426 70.029 C 147.129 70.140,145.898 69.728,146.075 67.903 C 146.260 65.986,147.443 65.626,155.707 64.974 C 159.718 64.658,163.360 64.334,163.800 64.254 C 167.212 63.636,171.118 64.022,172.492 65.114 M210.644 69.915 C 209.509 72.111,212.029 84.000,213.630 84.000 C 214.492 84.000,215.327 80.990,215.350 77.800 C 215.375 74.225,214.864 72.819,212.610 70.266 L 211.256 68.731 210.644 69.915 M214.148 74.900 C 214.490 76.175,214.406 80.049,214.016 81.000 C 213.520 82.211,212.803 80.122,212.724 77.231 C 212.641 74.238,213.565 72.726,214.148 74.900 M189.909 84.698 C 187.990 85.888,186.677 93.136,188.157 94.364 C 191.020 96.740,193.138 92.211,191.945 86.267 C 191.439 83.747,191.440 83.748,189.909 84.698 M191.572 91.099 C 191.607 91.724,189.125 92.809,188.649 92.377 C 187.981 91.770,188.770 90.077,189.899 89.695 C 191.011 89.318,191.494 89.724,191.572 91.099 M212.476 97.708 C 212.236 97.997,211.933 101.580,211.771 106.020 L 211.487 113.825 212.514 115.012 L 213.541 116.200 214.955 115.445 C 215.733 115.030,217.290 113.500,218.413 112.045 L 220.457 109.400 220.328 105.974 C 220.207 102.723,220.118 102.428,218.601 100.226 C 216.633 97.370,213.743 96.182,212.476 97.708 M216.174 98.483 C 216.216 98.547,216.939 99.559,217.782 100.732 C 220.958 105.149,220.665 108.370,216.713 112.491 L 213.926 115.396 213.115 114.398 C 212.336 113.438,212.314 99.522,213.091 98.256 C 213.273 97.959,215.965 98.157,216.174 98.483 M135.142 157.600 C 111.157 157.828,113.090 157.510,111.609 161.469 C 110.337 164.867,110.324 332.422,111.595 335.295 C 112.037 336.296,112.715 337.269,113.100 337.457 C 114.164 337.978,286.919 338.106,288.846 337.588 C 289.974 337.284,290.695 336.737,291.427 335.631 L 292.444 334.095 292.427 262.347 C 292.418 222.886,292.408 184.049,292.405 176.043 L 292.400 161.486 290.457 159.543 L 288.514 157.600 267.557 157.597 C 256.031 157.595,226.260 157.550,201.400 157.497 C 176.540 157.443,146.724 157.490,135.142 157.600 M268.067 158.392 L 287.935 158.400 289.667 160.065 L 291.400 161.729 291.503 247.625 L 291.605 333.520 290.524 335.172 C 289.929 336.081,289.072 336.914,288.621 337.023 C 286.855 337.450,113.646 337.006,113.213 336.573 C 112.915 336.275,112.743 315.902,112.641 269.173 C 112.561 232.338,112.477 201.750,112.453 201.200 C 112.429 200.650,112.501 191.380,112.613 180.600 C 112.820 160.702,112.905 159.645,114.356 158.921 C 115.325 158.438,149.921 158.189,201.800 158.292 C 227.320 158.343,257.140 158.388,268.067 158.392 M114.982 162.582 L 114.000 163.564 114.003 178.682 C 114.007 195.601,114.467 198.986,116.848 199.653 C 117.372 199.800,155.707 199.938,202.038 199.960 L 286.276 200.000 287.038 199.158 C 288.174 197.904,288.484 163.598,287.371 162.368 C 286.690 161.615,284.978 161.600,201.320 161.600 L 115.964 161.600 114.982 162.582 M286.869 162.662 C 287.876 163.574,288.011 194.104,287.013 195.424 C 286.690 195.851,286.420 196.515,286.413 196.900 C 286.391 198.070,119.907 197.977,117.610 196.805 C 114.693 195.317,114.800 196.004,114.800 178.735 C 114.800 161.912,114.661 162.864,117.186 162.369 C 120.693 161.682,286.101 161.967,286.869 162.662 M134.158 172.141 C 127.131 176.612,126.490 177.808,128.800 182.136 C 129.460 183.373,130.000 184.756,130.000 185.211 C 130.000 187.426,131.628 188.078,136.805 187.933 C 142.476 187.775,142.579 187.708,144.003 183.208 C 145.959 177.029,145.331 175.631,139.168 172.448 L 136.136 170.882 134.158 172.141 M139.200 173.190 C 144.805 175.762,145.259 177.026,143.006 183.800 C 141.902 187.119,142.120 186.978,137.758 187.214 C 132.175 187.517,131.135 187.143,130.509 184.609 C 130.239 183.516,129.677 182.159,129.259 181.595 C 127.389 179.065,127.890 177.170,130.975 175.107 C 135.348 172.183,136.202 171.734,136.800 172.048 C 137.130 172.222,138.210 172.735,139.200 173.190 M114.978 202.585 L 113.993 203.571 114.096 268.153 L 114.200 332.736 115.170 333.768 L 116.139 334.800 201.459 334.800 L 286.779 334.800 287.390 333.620 C 288.423 331.621,288.305 203.200,287.269 202.262 C 286.593 201.650,280.049 201.600,201.250 201.600 L 115.964 201.600 114.978 202.585 M286.869 202.662 C 287.813 203.517,288.022 330.942,287.082 332.800 L 286.576 333.800 201.453 333.800 L 116.329 333.800 115.565 332.856 C 114.608 331.674,114.333 203.536,115.286 202.947 C 116.551 202.165,123.889 202.089,202.369 202.046 C 279.794 202.003,286.192 202.050,286.869 202.662 M126.425 225.706 C 124.959 226.449,124.497 228.675,125.584 229.762 L 126.422 230.600 198.886 230.703 L 271.349 230.806 272.440 229.762 C 273.627 228.624,273.443 226.806,272.030 225.713 C 271.104 224.996,127.839 224.989,126.425 225.706 M272.141 227.492 C 272.921 230.214,279.100 230.000,199.577 230.000 C 119.763 230.000,124.782 230.203,125.991 227.025 L 126.381 225.998 199.076 226.099 L 271.770 226.200 272.141 227.492 M12.246 264.327 C 12.841 270.659,12.852 371.376,12.258 372.189 C 11.271 373.539,6.514 373.581,4.937 372.253 C 3.568 371.102,3.610 371.871,4.397 362.400 C 4.625 359.650,4.984 350.920,5.195 343.000 C 5.484 332.120,5.777 327.280,6.394 323.200 C 6.871 320.045,7.370 313.808,7.595 308.200 C 8.046 296.915,8.293 293.842,9.012 290.600 C 9.698 287.510,10.307 279.744,10.597 270.400 C 10.940 259.367,11.563 257.069,12.246 264.327 M125.816 262.900 L 124.787 263.800 125.552 265.042 C 126.684 266.878,123.394 266.800,200.034 266.800 L 271.169 266.800 271.980 265.929 C 273.291 264.522,273.421 263.547,272.406 262.725 C 271.550 262.031,268.415 262.000,199.178 262.000 L 126.845 262.000 125.816 262.900 M271.974 263.369 C 272.576 264.094,271.812 265.449,270.620 265.769 C 268.461 266.349,128.906 266.004,127.497 265.415 C 125.953 264.770,125.422 263.938,126.111 263.249 C 126.860 262.500,271.352 262.619,271.974 263.369 M388.387 276.620 C 388.380 276.829,388.093 278.890,387.749 281.200 C 387.097 285.570,386.370 375.033,386.967 377.410 C 387.626 380.037,390.008 380.438,392.313 378.310 L 393.298 377.400 393.048 358.200 C 392.782 337.789,392.700 336.070,391.808 332.000 C 390.965 328.157,390.457 317.804,390.218 299.599 C 390.011 283.833,389.617 277.457,388.800 276.640 C 388.560 276.400,388.395 276.392,388.387 276.620 M389.606 308.572 C 390.038 326.890,390.616 338.931,391.214 342.049 C 392.407 348.273,392.820 376.072,391.738 377.269 C 390.798 378.308,388.558 378.243,387.978 377.159 C 387.505 376.275,387.748 300.346,388.245 293.800 C 388.741 287.265,389.228 292.548,389.606 308.572 M127.367 296.827 C 124.665 297.618,124.061 301.215,126.531 301.810 C 127.009 301.925,159.978 301.970,199.795 301.909 L 272.189 301.800 272.731 300.671 C 273.406 299.261,273.105 297.981,271.915 297.200 C 270.850 296.502,129.723 296.138,127.367 296.827 M271.987 298.185 C 272.362 298.636,272.366 299.091,272.005 300.185 L 271.538 301.600 199.795 301.600 C 156.697 301.600,127.663 301.452,127.077 301.229 C 125.776 300.735,125.269 298.831,126.248 298.116 C 127.373 297.293,271.304 297.361,271.987 298.185 M11.996 378.195 C 12.584 378.903,11.641 379.455,10.555 379.038 C 9.906 378.789,10.440 377.600,11.200 377.600 C 11.366 377.600,11.724 377.868,11.996 378.195 M22.629 387.429 C 22.283 387.774,22.000 388.570,22.000 389.196 C 22.000 389.822,21.899 390.597,21.776 390.917 C 21.653 391.238,21.979 391.996,22.501 392.603 L 23.449 393.705 51.025 393.220 C 71.349 392.863,79.494 392.583,82.000 392.156 C 88.472 391.053,90.652 390.866,102.200 390.421 C 125.816 389.513,130.668 389.041,126.889 388.024 C 121.806 386.655,23.961 386.096,22.629 387.429 M250.469 387.230 C 241.206 388.432,244.563 389.409,261.400 390.411 C 268.871 390.855,269.687 390.969,273.903 392.161 C 275.473 392.606,280.229 392.866,292.703 393.189 C 304.327 393.490,310.068 393.791,311.600 394.177 C 314.261 394.849,318.616 395.075,339.358 395.618 C 351.043 395.924,355.969 396.198,357.758 396.640 C 360.457 397.308,370.102 397.862,371.763 397.445 C 372.552 397.247,373.057 396.642,373.760 395.052 C 374.811 392.675,375.320 392.340,377.374 392.673 C 379.341 392.992,380.000 392.328,380.000 390.027 C 380.000 386.685,377.515 385.778,374.612 388.062 C 374.055 388.500,373.600 388.678,373.600 388.458 C 373.600 386.734,375.976 386.797,312.671 386.851 C 279.852 386.879,251.861 387.049,250.469 387.230 M105.800 388.353 L 109.800 388.611 106.800 388.899 C 105.150 389.057,100.290 389.282,96.000 389.399 C 84.390 389.716,74.481 390.381,72.000 391.008 C 67.678 392.102,29.820 393.359,24.911 392.572 C 22.546 392.193,22.012 389.257,24.151 388.393 C 25.127 387.999,99.762 387.962,105.800 388.353 M372.516 389.734 C 373.368 391.544,373.146 394.080,372.003 395.597 L 371.270 396.568 366.535 396.084 C 363.931 395.818,357.030 395.407,351.200 395.172 C 345.370 394.937,337.810 394.481,334.400 394.159 C 327.709 393.528,317.172 393.036,297.000 392.411 C 285.724 392.063,283.652 391.895,279.600 391.007 C 276.512 390.330,272.699 389.869,268.000 389.603 C 264.150 389.386,260.010 389.076,258.800 388.916 L 256.600 388.623 259.000 388.378 C 260.320 388.243,286.239 388.148,316.597 388.167 L 371.794 388.200 372.516 389.734 M378.800 390.224 C 378.800 391.007,378.650 391.555,378.467 391.441 C 378.151 391.246,378.317 388.800,378.645 388.800 C 378.730 388.800,378.800 389.441,378.800 390.224 " stroke="none" fill="#747448" fill-rule="evenodd"></path></g></svg>